<svg width="326" height="302" viewBox="0 0 326 302" fill="none" xmlns="http://www.w3.org/2000/svg">
<path d="M161.883 237.676C139.528 239.073 138.059 222.751 125.052 221.977C111.878 221.193 99.398 227.209 87.216 232.287C44.1212 250.25 24.4414 235.809 28.1529 211.528C32.943 180.191 50.5079 156.639 37.1349 133.486C20.8113 105.224 21.8291 78.405 40.46 63.9298C59.0909 49.4546 98.6112 70.2129 113.969 56.942C137.987 36.1881 155.297 11.531 188.663 14.1366C200.815 15.0856 210.597 22.5501 214.56 40.3838C221.583 71.985 224.557 87.3789 244.366 96.4171C255.714 101.594 302.283 105.958 307.73 128.305C313.178 150.652 289.425 159.035 284.802 176.51C281.282 189.812 294.416 221.11 268.868 241.668C248.518 258.043 232.741 229.693 213.779 227.896C194.817 226.099 184.238 236.279 161.883 237.676Z" fill="#FFE1D2"/>
<path d="M272.17 98.4639C274.368 98.8303 311.554 105.974 315.95 127.04C317.232 135.649 328.382 133.352 325.109 123.376C320.004 107.82 301.478 100.296 272.17 98.4639Z" fill="#FFE1D2"/>
<path d="M188.87 8.47479C198.16 9.88271 213.67 14.3278 218.291 30.1932C222.912 46.0586 227.225 69.3174 227.225 69.3174C227.225 69.3174 230.306 45.4427 224.915 24.8021C219.99 5.95059 201.04 -0.151138 191.489 0.00283017C179.815 0.191589 183.788 7.70495 188.87 8.47479Z" fill="#FFE1D2"/>
<path d="M29.8266 179.739C23.716 192.978 18.7121 215.089 23.2104 227.942C26.7747 238.126 31.4167 240.279 33.5582 241.896C40.3542 247.031 34.6729 257.447 24.7294 248.925C15.6416 241.135 11.0803 224.53 15.3795 208.094C19.9704 190.541 29.8266 179.739 29.8266 179.739Z" fill="#FFE1D2"/>
<path d="M321.898 141.692C321.898 143.53 320.408 145.02 318.569 145.02C316.73 145.02 315.24 143.53 315.24 141.692C315.24 139.854 316.731 138.363 318.569 138.363C320.407 138.362 321.898 139.853 321.898 141.692Z" fill="#FFE1D2"/>
<path d="M173.928 5.30365C173.928 6.78263 172.729 7.98181 171.25 7.98181C169.771 7.98181 168.572 6.78263 168.572 5.30365C168.572 3.82466 169.771 2.62549 171.25 2.62549C172.729 2.62549 173.928 3.82466 173.928 5.30365Z" fill="#FFE1D2"/>
<path d="M49.6499 249.259C49.6499 251.341 47.9614 253.03 45.8791 253.03C43.7969 253.03 42.1084 251.341 42.1084 249.259C42.1084 247.177 43.7969 245.488 45.8791 245.488C47.9614 245.488 49.6499 247.177 49.6499 249.259Z" fill="#FFE1D2"/>
<path d="M27.0905 70.3664C20.0102 79.9457 14.8041 100.978 27.7153 128.466C9.80682 111.182 8.33377 84.9149 17.5112 68.7009C23.7587 57.664 31.2558 63.7028 27.0905 70.3664Z" fill="#FFE1D2"/>
<path d="M33.1299 63.2878C35.6601 63.2878 37.7112 61.2367 37.7112 58.7065C37.7112 56.1764 35.6601 54.1252 33.1299 54.1252C30.5997 54.1252 28.5486 56.1764 28.5486 58.7065C28.5486 61.2367 30.5997 63.2878 33.1299 63.2878Z" fill="#FFE1D2"/>
<path d="M295.315 254.078C296.005 251.847 292.871 245.924 289.238 244.72C289.442 248.507 292.839 253.191 295.315 254.078Z" fill="#008EAE"/>
<path d="M289.751 256.629C290.974 254.245 288.607 246.927 284.74 244.844C284.217 249.166 287.127 255.135 289.751 256.629Z" fill="#00AB92"/>
<path d="M283.835 260.711C285.549 257.75 283.006 248.267 278.21 245.36C277.263 250.837 280.587 258.636 283.835 260.711Z" fill="#008EAE"/>
<path d="M273.502 265.683C276.513 262.608 276.365 250.251 271.421 245.214C268.562 251.598 270.188 262.142 273.502 265.683Z" fill="#00AB92"/>
<path d="M266.041 269.569C267.609 265.119 268.612 249.415 263.569 244.477C260.837 250.917 263.07 265.701 266.041 269.569Z" fill="#008EAE"/>
<path d="M256.545 264.339C258.259 260.943 260.682 248.487 257.16 244.017C254.31 248.885 254.568 260.939 256.545 264.339Z" fill="#00AB92"/>
<path d="M249.478 258.805C250.911 256.2 253.152 246.537 250.524 242.947C248.163 246.67 248.029 256.094 249.478 258.805Z" fill="#008EAE"/>
<path d="M244.851 252.231C245.701 250.412 246.781 243.801 244.851 241.499C243.425 244.113 243.754 250.469 244.851 252.231Z" fill="#00AB92"/>
<path d="M292.993 233.746C294.208 235.739 292.621 242.25 289.394 244.308C288.663 240.585 290.809 235.212 292.993 233.746Z" fill="#00AB92"/>
<path d="M288.468 232.701C289.803 235.023 287.79 242.447 284.026 244.712C283.296 240.42 285.919 234.319 288.468 232.701Z" fill="#008EAE"/>
<path d="M282.653 229.25C284.51 232.122 282.435 241.719 277.787 244.858C276.574 239.433 279.511 231.482 282.653 229.25Z" fill="#00AB92"/>
<path d="M275.422 224.89C278.097 228.261 276.667 240.536 271.227 245.032C269.047 238.386 271.757 228.067 275.422 224.89Z" fill="#008EAE"/>
<path d="M268.739 219.49C269.848 224.075 269.253 239.8 263.735 244.201C261.671 237.517 265.391 223.035 268.739 219.49Z" fill="#00AB92"/>
<path d="M259.548 223.451C260.73 227.067 261.249 239.746 257.092 243.634C255.008 238.391 257.081 226.514 259.548 223.451Z" fill="#008EAE"/>
<path d="M254.621 226.917C255.2 229.834 254.411 239.721 250.821 242.348C249.696 238.085 252.419 229.062 254.621 226.917Z" fill="#00AB92"/>
<path d="M248.714 231.03C248.814 233.035 247.321 239.565 244.665 240.969C244.33 238.01 247.033 232.248 248.714 231.03Z" fill="#008EAE"/>
<path d="M237.78 238.814C255.161 246.281 282.979 245.94 292.035 244.125" stroke="#006A88" stroke-width="0.740232" stroke-miterlimit="10" stroke-linecap="round"/>
<path d="M292.105 244.055C294.506 244.792 300.872 241.407 302.159 237.495C298.084 237.723 293.053 241.388 292.105 244.055Z" fill="#008EAE"/>
<path d="M292.327 244.007C293.344 246.303 300.073 248.892 303.871 247.3C301.028 244.371 294.961 242.975 292.327 244.007Z" fill="#00AB92"/>
<path d="M45.5808 197.318C43.8783 198.916 43.674 205.614 46.2367 208.456C47.9326 205.063 47.2945 199.312 45.5808 197.318Z" fill="#008EAE"/>
<path d="M51.6801 197.852C49.4387 199.319 47.8776 206.851 50.21 210.573C52.8009 207.075 53.222 200.448 51.6801 197.852Z" fill="#00AB92"/>
<path d="M58.8399 197.229C55.8871 198.954 53.4088 208.456 56.141 213.353C59.6712 209.06 60.6372 200.637 58.8399 197.229Z" fill="#008EAE"/>
<path d="M70.2808 198.015C66.1429 199.2 60.1625 210.013 61.9694 216.836C67.6108 212.7 71.4111 202.731 70.2808 198.015Z" fill="#00AB92"/>
<path d="M78.6867 198.324C75.124 201.416 66.4885 214.572 68.4308 221.357C73.9885 217.11 79.3574 203.156 78.6867 198.324Z" fill="#008EAE"/>
<path d="M84.3546 207.567C81.1857 209.672 72.921 219.301 73.7738 224.928C78.6578 222.106 84.3924 211.5 84.3546 207.567Z" fill="#00AB92"/>
<path d="M87.7621 215.87C85.2283 217.426 78.5032 224.718 79.0125 229.137C82.9061 227.068 87.6821 218.944 87.7621 215.87Z" fill="#008EAE"/>
<path d="M88.5341 223.873C86.896 225.034 82.6885 230.247 83.2281 233.202C85.7604 231.635 88.6163 225.947 88.5341 223.873Z" fill="#00AB92"/>
<path d="M37.5488 216.139C37.4777 213.806 42.076 208.931 45.8986 208.738C44.6942 212.335 40.1722 215.944 37.5488 216.139Z" fill="#00AB92"/>
<path d="M40.9651 219.285C40.9525 216.606 46.3732 211.149 50.7643 211.04C49.2757 215.132 43.9801 219.139 40.9651 219.285Z" fill="#008EAE"/>
<path d="M44.3133 225.159C44.1193 221.744 50.6682 214.427 56.2592 213.998C54.6329 219.312 48.1477 224.772 44.3133 225.159Z" fill="#00AB92"/>
<path d="M48.4428 232.523C47.784 228.27 55.0953 218.307 62.0468 217.088C60.6574 223.944 53.1988 231.573 48.4428 232.523Z" fill="#008EAE"/>
<path d="M51.582 240.522C52.8848 235.988 61.1769 222.614 68.1492 221.516C66.6391 228.347 56.2455 239.095 51.582 240.522Z" fill="#00AB92"/>
<path d="M61.5297 241.622C62.2899 237.895 68.1074 226.618 73.6421 225.294C72.8619 230.879 65.1886 240.179 61.5297 241.622Z" fill="#008EAE"/>
<path d="M67.526 241.045C68.4661 238.224 74.0393 230.019 78.4592 229.511C77.3289 233.773 70.501 240.27 67.526 241.045Z" fill="#00AB92"/>
<path d="M74.6948 240.392C75.5986 238.599 80.1252 233.661 83.1283 233.754C81.9565 236.491 76.7586 240.164 74.6948 240.392Z" fill="#008EAE"/>
<path d="M88.047 239.031C76.6304 223.948 52.2827 210.49 43.5132 207.59" stroke="#006A88" stroke-width="0.740232" stroke-miterlimit="10" stroke-linecap="round"/>
<path d="M43.4167 207.616C41.6942 205.789 34.4873 205.584 31.4346 208.347C35.0891 210.164 41.2745 209.465 43.4167 207.616Z" fill="#008EAE"/>
<path d="M43.2006 207.548C43.4523 205.049 38.8829 199.472 34.7946 198.978C35.8176 202.929 40.4003 207.143 43.2006 207.548Z" fill="#00AB92"/>
<path d="M240.829 228.538C237.45 206.784 250.069 185.345 283.02 173.799C282.663 214.297 253.079 228.558 240.829 228.538Z" fill="#005D7B"/>
<path d="M240.829 228.537C242.093 223.395 256.336 204.816 277.121 180.591C258.472 207.652 245.588 225.53 240.829 228.537Z" fill="#007696"/>
<path d="M246.172 222.031C248.402 221.364 251.314 222.554 251.986 224.651C251.79 220.88 247.136 221.172 247.136 221.172L246.172 222.031Z" fill="#007696"/>
<path d="M250.972 215.768C255.226 215.878 258.506 218.11 259.63 220.353C258.024 214.528 252.079 214.24 252.079 214.24L250.972 215.768Z" fill="#007696"/>
<path d="M256.989 207.715C260.833 207.344 264.853 209.275 266.951 212.851C265.164 208.178 260.474 206.194 257.708 206.559C257.265 207.063 256.989 207.715 256.989 207.715Z" fill="#007696"/>
<path d="M263.948 198.525C268.649 198.67 270.658 199.367 273.369 203.125C272.198 199.174 267.005 196.746 264.963 197.034C264.187 197.781 263.948 198.525 263.948 198.525Z" fill="#007696"/>
<path d="M269.356 190.828C271.826 190.798 274.482 191.813 276.075 193.824C274.687 190.933 270.28 189.914 270.28 189.914L269.356 190.828Z" fill="#007696"/>
<path d="M274.231 184.456C275.885 184.541 277.941 185.741 279.101 187.311C278.292 185.049 274.664 183.821 274.664 183.821L274.231 184.456Z" fill="#007696"/>
<path d="M245.383 221.52C245.426 219.192 243.499 216.708 241.299 216.623C244.984 215.8 245.953 220.36 245.953 220.36L245.383 221.52Z" fill="#007696"/>
<path d="M250.127 215.214C248.878 211.146 245.847 208.586 243.385 208.105C249.428 208.088 251.302 213.737 251.302 213.737L250.127 215.214Z" fill="#007696"/>
<path d="M256.267 207.255C255.592 203.453 252.651 200.098 248.644 199.039C253.625 199.504 256.795 203.489 257.186 206.252C256.821 206.814 256.267 207.255 256.267 207.255Z" fill="#007696"/>
<path d="M263.25 198.083C261.847 193.594 260.637 191.847 256.288 190.244C260.409 190.31 264.142 194.661 264.413 196.705C263.902 197.654 263.25 198.083 263.25 198.083Z" fill="#007696"/>
<path d="M269.211 190.807C268.577 188.42 266.886 186.134 264.521 185.139C267.678 185.7 269.844 189.671 269.844 189.671L269.211 190.807Z" fill="#007696"/>
<path d="M274.041 184.399C273.514 182.829 271.806 181.172 269.981 180.475C272.378 180.647 274.534 183.812 274.534 183.812L274.041 184.399Z" fill="#007696"/>
<path d="M237.571 237.304C242.226 215.787 261.698 200.307 296.599 201.359C281.728 239.03 248.997 241.721 237.571 237.304Z" fill="#008EAE"/>
<path d="M237.571 237.305C240.596 232.959 260.559 220.731 288.655 205.582C261.535 224.146 243.091 236.207 237.571 237.305Z" fill="#007696"/>
<path d="M244.893 233.15C247.215 233.328 249.505 235.483 249.38 237.681C250.55 234.091 246.102 232.693 246.102 232.693L244.893 233.15Z" fill="#007696"/>
<path d="M251.62 229.026C255.552 230.656 257.811 233.917 258.057 236.414C258.649 230.401 253.203 227.997 253.203 227.997L251.62 229.026Z" fill="#007696"/>
<path d="M260.128 223.67C263.848 224.704 266.909 227.95 267.582 232.039C267.592 227.037 263.927 223.502 261.214 222.85C260.619 223.161 260.128 223.67 260.128 223.67Z" fill="#007696"/>
<path d="M269.923 217.591C274.258 219.414 275.883 220.785 277.064 225.266C277.391 221.159 273.414 217.028 271.405 216.564C270.412 216.983 269.923 217.591 269.923 217.591Z" fill="#007696"/>
<path d="M277.732 212.349C280.048 213.207 282.163 215.108 282.928 217.558C282.671 214.361 278.923 211.828 278.923 211.828L277.732 212.349Z" fill="#007696"/>
<path d="M284.569 208.15C286.082 208.823 287.57 210.682 288.09 212.564C288.147 210.162 285.202 207.714 285.202 207.714L284.569 208.15Z" fill="#007696"/>
<path d="M244.34 232.39C245.216 230.233 244.309 227.222 242.285 226.354C246.021 226.907 245.288 231.512 245.288 231.512L244.34 232.39Z" fill="#007696"/>
<path d="M251.031 228.208C251.326 223.962 249.415 220.486 247.291 219.152C252.936 221.305 252.658 227.25 252.658 227.25L251.031 228.208Z" fill="#007696"/>
<path d="M259.619 222.983C260.354 219.192 258.813 215.006 255.453 212.578C259.935 214.801 261.464 219.659 260.837 222.377C260.294 222.77 259.619 222.983 259.619 222.983Z" fill="#007696"/>
<path d="M269.43 216.928C269.732 212.235 269.23 210.169 265.746 207.114C269.568 208.654 271.491 214.055 271.01 216.06C270.193 216.762 269.43 216.928 269.43 216.928Z" fill="#007696"/>
<path d="M277.605 212.278C277.87 209.822 277.113 207.082 275.261 205.305C278.007 206.961 278.603 211.446 278.603 211.446L277.605 212.278Z" fill="#007696"/>
<path d="M284.413 208.03C284.485 206.376 283.485 204.216 282.032 202.911C284.208 203.931 285.084 207.659 285.084 207.659L284.413 208.03Z" fill="#007696"/>
<path d="M89.6146 233.579C79.0396 252.888 55.9725 262.2 22.8079 251.28C47.7648 219.384 79.9123 226.099 89.6146 233.579Z" fill="#008EAE"/>
<path d="M89.6147 233.578C85.4797 236.886 62.8664 242.941 31.6241 249.487C62.899 239.391 84.0089 233.064 89.6147 233.578Z" fill="#007696"/>
<path d="M81.4138 235.481C79.2383 234.65 77.6549 231.934 78.3996 229.862C76.2574 232.972 80.1258 235.576 80.1258 235.576L81.4138 235.481Z" fill="#007696"/>
<path d="M73.7919 237.523C70.4853 234.844 69.2454 231.076 69.7192 228.613C67.4437 234.21 71.9828 238.061 71.9828 238.061L73.7919 237.523Z" fill="#007696"/>
<path d="M64.1148 240.244C60.8415 238.196 58.8295 234.215 59.3447 230.102C57.9146 234.896 60.4247 239.327 62.8408 240.721C63.4989 240.592 64.1148 240.244 64.1148 240.244Z" fill="#007696"/>
<path d="M52.9959 243.289C49.3576 240.311 48.1881 238.534 48.328 233.903C46.8483 237.749 49.4879 242.838 51.283 243.854C52.3541 243.734 52.9959 243.289 52.9959 243.289Z" fill="#007696"/>
<path d="M44.0193 246.099C42.0421 244.618 40.5542 242.196 40.5165 239.629C39.8555 242.768 42.729 246.261 42.729 246.261L44.0193 246.099Z" fill="#007696"/>
<path d="M36.2707 248.182C35.0116 247.107 34.1129 244.903 34.1492 242.95C33.4126 245.238 35.5416 248.421 35.5416 248.421L36.2707 248.182Z" fill="#007696"/>
<path d="M81.7275 236.369C80.2752 238.188 80.29 241.333 81.9829 242.741C78.5586 241.149 80.5691 236.942 80.5691 236.942L81.7275 236.369Z" fill="#007696"/>
<path d="M74.1248 238.478C72.6362 242.465 73.4808 246.342 75.1397 248.223C70.3378 244.556 72.2935 238.934 72.2935 238.934L74.1248 238.478Z" fill="#007696"/>
<path d="M64.406 241.049C62.625 244.475 62.913 248.926 65.4453 252.209C61.7797 248.805 61.6931 243.713 63.0662 241.284C63.6984 241.061 64.406 241.049 64.406 241.049Z" fill="#007696"/>
<path d="M53.2802 244.069C51.6576 248.482 51.5525 250.606 54.0242 254.526C50.7975 251.963 50.4873 246.238 51.5185 244.453C52.5008 244.011 53.2802 244.069 53.2802 244.069Z" fill="#007696"/>
<path d="M44.1199 246.204C43.1687 248.484 43.1161 251.326 44.3863 253.557C42.2241 251.189 42.9259 246.72 42.9259 246.72L44.1199 246.204Z" fill="#007696"/>
<path d="M36.3869 248.344C35.8473 249.91 36.1922 252.265 37.2152 253.929C35.4194 252.333 35.6371 248.509 35.6371 248.509L36.3869 248.344Z" fill="#007696"/>
<path d="M125.011 77.1666C123.642 77.1666 119.622 77.1666 118.385 77.1666C118.385 74.9104 119.869 73.082 121.698 73.082C123.529 73.082 125.011 74.9111 125.011 77.1666Z" fill="#FFC900"/>
<path d="M118.677 77.084H118.391V80.1249H118.677V77.084Z" fill="#FFC900"/>
<path d="M119.383 77.084H119.096V80.1249H119.383V77.084Z" fill="#FFC900"/>
<path d="M120.088 77.084H119.802V80.1249H120.088V77.084Z" fill="#FFC900"/>
<path d="M120.793 77.084H120.506V80.1249H120.793V77.084Z" fill="#FFC900"/>
<path d="M121.498 77.084H121.212V80.1249H121.498V77.084Z" fill="#FFC900"/>
<path d="M122.204 77.084H121.917V80.1249H122.204V77.084Z" fill="#FFC900"/>
<path d="M122.909 77.084H122.622V80.1249H122.909V77.084Z" fill="#FFC900"/>
<path d="M123.614 77.084H123.327V80.1249H123.614V77.084Z" fill="#FFC900"/>
<path d="M124.319 77.084H124.033V80.1249H124.319V77.084Z" fill="#FFC900"/>
<path d="M125.025 77.084H124.738V80.1249H125.025V77.084Z" fill="#FFC900"/>
<path d="M122.595 72.6727C122.595 73.1642 122.196 73.5632 121.704 73.5632C121.213 73.5632 120.814 73.1642 120.814 72.6727C120.814 72.1812 121.213 71.7822 121.704 71.7822C122.197 71.7822 122.595 72.1805 122.595 72.6727Z" fill="#FFC900"/>
<path d="M122.16 71.4589C122.16 71.7106 121.956 71.9141 121.705 71.9141C121.453 71.9141 121.25 71.7098 121.25 71.4589C121.25 71.2072 121.453 71.0029 121.705 71.0029C121.956 71.0029 122.16 71.2072 122.16 71.4589Z" fill="#FFC900"/>
<path d="M121.715 71.1865V63.7612" stroke="#FFC900" stroke-width="0.370116" stroke-miterlimit="10"/>
<path d="M157.679 77.0545L116.302 61.9538L157.679 46.853L199.056 61.9538L157.679 77.0545Z" fill="#FF5500"/>
<path d="M253.178 260.127L67.8183 259.982C66.4659 259.981 65.3696 258.884 65.3711 257.53L65.4644 138.69C65.4681 134.55 68.8265 131.196 72.9674 131.199L248.233 131.337C252.373 131.341 255.727 134.699 255.723 138.839L255.63 257.68C255.629 259.032 254.531 260.128 253.178 260.127Z" fill="#293036"/>
<path d="M247.496 252.685L71.538 252.547L71.6283 137.202L247.587 137.341L247.496 252.685Z" fill="white"/>
<path d="M295.5 302.056L25.622 301.844C22.3642 301.841 19.7253 299.198 19.7275 295.941V295.73L301.402 295.951V296.161C301.4 299.419 298.757 302.058 295.5 302.056Z" fill="#939597"/>
<path d="M294.891 297.519L26.2103 297.308C21.3299 297.305 18.6207 296.326 20.1596 295.122L62.9095 261.677C64.4485 260.474 68.3273 259.499 71.5732 259.502L250.268 259.642C253.514 259.645 257.374 260.625 258.889 261.831L300.984 295.342C302.5 296.549 299.771 297.523 294.891 297.519Z" fill="#D0D3D4"/>
<path d="M212.172 294.967L108.952 294.886L115.924 281.497L205.488 281.567L212.172 294.967Z" fill="#BCBEC0"/>
<path d="M83.0648 264.39L74.8223 264.383C74.3382 264.383 74.0954 264.246 74.2804 264.078L77.4301 261.207C77.6152 261.038 78.1408 260.902 78.6034 260.902L86.4869 260.908C86.9503 260.909 87.1923 261.046 87.0287 261.214L84.2381 264.085C84.0745 264.254 83.5489 264.391 83.0648 264.39Z" fill="#939597"/>
<path d="M94.7436 264.399L86.5011 264.392C86.017 264.392 85.7542 264.254 85.9149 264.086L88.6448 261.214C88.8055 261.045 89.311 260.909 89.7737 260.909L97.6572 260.915C98.1205 260.916 98.3826 261.053 98.2434 261.222L95.8725 264.093C95.7333 264.263 95.2277 264.399 94.7436 264.399Z" fill="#939597"/>
<path d="M106.421 264.407L98.1789 264.401C97.6948 264.401 97.412 264.263 97.5482 264.094L99.8585 261.223C99.9947 261.054 100.48 260.918 100.943 260.918L108.826 260.924C109.29 260.925 109.572 261.062 109.457 261.23L107.505 264.102C107.391 264.271 106.906 264.407 106.421 264.407Z" fill="#939597"/>
<path d="M118.099 264.417L109.857 264.41C109.373 264.409 109.07 264.272 109.181 264.104L111.072 261.231C111.183 261.063 111.649 260.927 112.112 260.927L119.996 260.932C120.459 260.933 120.761 261.07 120.672 261.239L119.139 264.111C119.049 264.281 118.584 264.417 118.099 264.417Z" fill="#939597"/>
<path d="M129.778 264.427L121.535 264.42C121.051 264.42 120.728 264.283 120.815 264.114L122.287 261.242C122.374 261.073 122.82 260.937 123.282 260.937L131.166 260.943C131.629 260.943 131.951 261.08 131.886 261.249L130.773 264.121C130.708 264.291 130.262 264.427 129.778 264.427Z" fill="#939597"/>
<path d="M141.504 264.435L133.261 264.428C132.777 264.428 132.434 264.29 132.497 264.122L133.548 261.249C133.61 261.08 134.035 260.944 134.498 260.944L142.382 260.95C142.845 260.951 143.187 261.087 143.146 261.256L142.454 264.129C142.413 264.299 141.988 264.436 141.504 264.435Z" fill="#939597"/>
<path d="M153.182 264.444L144.939 264.437C144.455 264.437 144.093 264.299 144.13 264.13L144.761 261.258C144.798 261.089 145.204 260.953 145.667 260.953L153.55 260.959C154.014 260.959 154.376 261.096 154.36 261.265L154.088 264.139C154.072 264.307 153.666 264.444 153.182 264.444Z" fill="#939597"/>
<path d="M164.859 264.454L156.617 264.448C156.133 264.447 155.75 264.31 155.763 264.141L155.975 261.268C155.988 261.099 156.373 260.963 156.836 260.963L164.72 260.969C165.183 260.969 165.565 261.106 165.574 261.275L165.72 264.149C165.729 264.318 165.344 264.454 164.859 264.454Z" fill="#939597"/>
<path d="M176.538 264.463L168.296 264.456C167.812 264.456 167.409 264.319 167.397 264.15L167.19 261.276C167.178 261.108 167.543 260.971 168.007 260.971L175.89 260.977C176.353 260.977 176.755 261.115 176.789 261.284L177.354 264.157C177.388 264.327 177.023 264.464 176.538 264.463Z" fill="#939597"/>
<path d="M188.216 264.472L179.974 264.465C179.49 264.464 179.067 264.327 179.03 264.159L178.404 261.285C178.367 261.116 178.712 260.979 179.176 260.98L187.059 260.986C187.523 260.986 187.945 261.124 188.002 261.292L188.988 264.167C189.046 264.336 188.7 264.472 188.216 264.472Z" fill="#939597"/>
<path d="M200.455 264.481L192.213 264.475C191.729 264.475 191.285 264.337 191.222 264.168L190.156 261.294C190.093 261.125 190.418 260.988 190.882 260.989L198.765 260.995C199.229 260.995 199.672 261.132 199.756 261.301L201.181 264.175C201.264 264.346 200.939 264.482 200.455 264.481Z" fill="#939597"/>
<path d="M212.133 264.491L203.891 264.485C203.407 264.484 202.943 264.347 202.856 264.178L201.371 261.304C201.284 261.135 201.589 260.998 202.052 260.999L209.936 261.005C210.399 261.005 210.862 261.142 210.97 261.311L212.814 264.186C212.922 264.355 212.617 264.491 212.133 264.491Z" fill="#939597"/>
<path d="M223.811 264.499L215.568 264.493C215.084 264.493 214.601 264.355 214.489 264.186L212.584 261.311C212.473 261.142 212.757 261.005 213.22 261.006L221.104 261.012C221.567 261.013 222.051 261.15 222.183 261.318L224.447 264.194C224.58 264.363 224.295 264.5 223.811 264.499Z" fill="#939597"/>
<path d="M235.49 264.509L227.247 264.503C226.763 264.502 226.26 264.365 226.124 264.196L223.8 261.321C223.664 261.152 223.928 261.015 224.391 261.016L232.275 261.022C232.738 261.022 233.241 261.16 233.399 261.328L236.081 264.204C236.238 264.372 235.974 264.509 235.49 264.509Z" fill="#939597"/>
<path d="M247.167 264.519L238.925 264.512C238.441 264.512 237.917 264.374 237.756 264.206L235.013 261.33C234.851 261.161 235.096 261.024 235.56 261.025L243.443 261.031C243.907 261.031 244.429 261.169 244.612 261.337L247.714 264.213C247.896 264.383 247.651 264.52 247.167 264.519Z" fill="#939597"/>
<path d="M84.2617 268.377L70.4956 268.366C69.9871 268.366 69.725 268.229 69.9101 268.06L73.0598 265.189C73.2448 265.02 73.7896 264.884 74.2767 264.885L87.4713 264.895C87.9584 264.896 88.2293 265.033 88.0754 265.202L85.4601 268.073C85.3069 268.241 84.7702 268.377 84.2617 268.377Z" fill="#939597"/>
<path d="M96.404 268.388L87.7507 268.381C87.2422 268.38 86.952 268.243 87.1023 268.075L89.6612 265.203C89.8115 265.034 90.3282 264.898 90.816 264.898L99.1103 264.905C99.5974 264.905 99.8875 265.043 99.7587 265.211L97.5588 268.083C97.43 268.251 96.9126 268.388 96.404 268.388Z" fill="#939597"/>
<path d="M108.664 268.398L100.011 268.391C99.5025 268.391 99.1923 268.253 99.3182 268.085L101.458 265.213C101.584 265.044 102.081 264.908 102.568 264.908L110.862 264.915C111.349 264.915 111.659 265.053 111.555 265.221L109.774 268.093C109.67 268.261 109.172 268.398 108.664 268.398Z" fill="#939597"/>
<path d="M120.924 268.407L112.27 268.401C111.762 268.4 111.432 268.263 111.533 268.094L113.254 265.222C113.354 265.053 113.832 264.917 114.319 264.917L122.613 264.924C123.1 264.924 123.43 265.061 123.35 265.229L121.989 268.101C121.909 268.271 121.432 268.407 120.924 268.407Z" fill="#939597"/>
<path d="M133.235 268.416L124.582 268.409C124.073 268.408 123.723 268.271 123.799 268.103L125.098 265.231C125.174 265.062 125.631 264.926 126.119 264.926L134.413 264.932C134.9 264.933 135.251 265.07 135.196 265.239L134.255 268.112C134.2 268.28 133.743 268.416 133.235 268.416Z" fill="#939597"/>
<path d="M145.495 268.427L136.841 268.42C136.333 268.42 135.963 268.282 136.015 268.114L136.895 265.241C136.947 265.072 137.383 264.936 137.87 264.936L146.165 264.942C146.652 264.942 147.022 265.08 146.992 265.249L146.47 268.122C146.44 268.291 146.003 268.427 145.495 268.427Z" fill="#939597"/>
<path d="M157.754 268.435L149.101 268.429C148.592 268.429 148.202 268.291 148.229 268.122L148.69 265.249C148.717 265.081 149.135 264.944 149.622 264.944L157.916 264.951C158.403 264.951 158.793 265.089 158.787 265.257L158.685 268.13C158.679 268.299 158.262 268.435 157.754 268.435Z" fill="#939597"/>
<path d="M170.014 268.445L161.361 268.438C160.852 268.437 160.442 268.3 160.445 268.132L160.487 265.258C160.489 265.089 160.887 264.952 161.374 264.953L169.668 264.96C170.155 264.961 170.565 265.097 170.584 265.266L170.901 268.14C170.92 268.309 170.523 268.445 170.014 268.445Z" fill="#939597"/>
<path d="M182.274 268.455L173.621 268.448C173.113 268.448 172.683 268.31 172.66 268.142L172.283 265.268C172.261 265.099 172.637 264.962 173.125 264.963L181.419 264.97C181.907 264.97 182.337 265.107 182.38 265.276L183.117 268.15C183.16 268.319 182.783 268.455 182.274 268.455Z" fill="#939597"/>
<path d="M195.123 268.464L186.47 268.458C185.961 268.457 185.511 268.32 185.463 268.151L184.645 265.277C184.597 265.108 184.953 264.971 185.44 264.972L193.735 264.979C194.222 264.979 194.673 265.116 194.742 265.285L195.918 268.159C195.988 268.328 195.631 268.465 195.123 268.464Z" fill="#939597"/>
<path d="M207.383 268.474L198.73 268.468C198.221 268.467 197.75 268.33 197.678 268.161L196.441 265.287C196.368 265.118 196.705 264.982 197.192 264.982L205.486 264.989C205.973 264.989 206.444 265.126 206.538 265.295L208.133 268.17C208.228 268.338 207.892 268.475 207.383 268.474Z" fill="#939597"/>
<path d="M219.643 268.484L210.99 268.477C210.481 268.476 209.99 268.34 209.893 268.171L208.237 265.296C208.14 265.127 208.457 264.99 208.944 264.991L217.238 264.997C217.725 264.997 218.217 265.135 218.334 265.304L220.349 268.179C220.468 268.348 220.151 268.485 219.643 268.484Z" fill="#939597"/>
<path d="M231.903 268.494L223.25 268.487C222.741 268.486 222.23 268.35 222.108 268.181L220.033 265.306C219.911 265.137 220.207 265 220.695 265.001L228.989 265.007C229.477 265.008 229.988 265.145 230.131 265.314L232.565 268.189C232.708 268.358 232.411 268.495 231.903 268.494Z" fill="#939597"/>
<path d="M251.428 268.509L235.509 268.496C235.001 268.495 234.47 268.358 234.323 268.19L231.829 265.315C231.682 265.146 231.958 265.009 232.445 265.01L247.704 265.021C248.191 265.022 248.734 265.159 248.916 265.328L252.019 268.204C252.201 268.372 251.937 268.509 251.428 268.509Z" fill="#939597"/>
<path d="M73.1191 280.466L57.3714 280.453C56.7896 280.452 56.4684 280.315 56.6534 280.147L59.8031 277.276C59.9882 277.107 60.5922 276.971 61.1525 276.972L76.3295 276.984C76.8899 276.984 77.22 277.121 77.0661 277.29L74.4508 280.161C74.2969 280.329 73.701 280.466 73.1191 280.466Z" fill="#939597"/>
<path d="M87.0095 280.475L77.1104 280.467C76.5285 280.466 76.1792 280.329 76.3294 280.16L78.8884 277.289C79.0387 277.12 79.6153 276.984 80.1757 276.985L89.7158 276.992C90.2761 276.993 90.6263 277.13 90.4967 277.298L88.2968 280.17C88.1672 280.339 87.5913 280.476 87.0095 280.475Z" fill="#939597"/>
<path d="M101.034 280.487L91.1351 280.479C90.5533 280.478 90.1839 280.341 90.3098 280.173L92.4498 277.301C92.5756 277.133 93.1315 276.996 93.6919 276.996L103.232 277.004C103.792 277.004 104.162 277.141 104.057 277.31L102.276 280.182C102.172 280.35 101.615 280.487 101.034 280.487Z" fill="#939597"/>
<path d="M115.06 280.497L105.161 280.49C104.579 280.489 104.19 280.352 104.291 280.183L106.012 277.311C106.113 277.143 106.649 277.006 107.209 277.006L116.749 277.014C117.31 277.014 117.699 277.151 117.619 277.32L116.258 280.192C116.178 280.361 115.641 280.498 115.06 280.497Z" fill="#939597"/>
<path d="M193.382 280.559L119.475 280.502C118.893 280.501 118.483 280.364 118.559 280.195L119.851 277.323C119.928 277.154 120.443 277.018 121.004 277.018L192.231 277.074C192.792 277.075 193.293 277.212 193.35 277.381L194.331 280.255C194.388 280.423 193.963 280.56 193.382 280.559Z" fill="#939597"/>
<path d="M207.426 280.57L197.527 280.561C196.945 280.561 196.424 280.424 196.363 280.255L195.323 277.381C195.261 277.212 195.666 277.075 196.226 277.076L205.767 277.083C206.327 277.084 206.848 277.221 206.93 277.39L208.33 280.264C208.412 280.433 208.007 280.57 207.426 280.57Z" fill="#939597"/>
<path d="M221.451 280.582L211.552 280.575C210.97 280.574 210.43 280.437 210.344 280.268L208.883 277.394C208.797 277.225 209.182 277.089 209.743 277.089L219.283 277.096C219.843 277.097 220.384 277.234 220.491 277.403L222.31 280.278C222.417 280.446 222.032 280.582 221.451 280.582Z" fill="#939597"/>
<path d="M235.476 280.593L225.577 280.585C224.995 280.585 224.435 280.448 224.324 280.279L222.444 277.404C222.334 277.235 222.699 277.098 223.259 277.099L232.799 277.106C233.36 277.107 233.921 277.244 234.053 277.413L236.291 280.288C236.422 280.457 236.057 280.593 235.476 280.593Z" fill="#939597"/>
<path d="M249.502 280.603L239.603 280.596C239.021 280.595 238.44 280.458 238.305 280.289L236.006 277.414C235.871 277.245 236.215 277.108 236.776 277.109L246.316 277.117C246.877 277.117 247.458 277.254 247.614 277.423L250.272 280.299C250.428 280.467 250.083 280.604 249.502 280.603Z" fill="#939597"/>
<path d="M263.565 280.615L253.666 280.606C253.084 280.606 252.484 280.469 252.324 280.3L249.605 277.424C249.445 277.255 249.77 277.118 250.33 277.119L259.87 277.127C260.43 277.127 261.032 277.264 261.212 277.433L264.291 280.309C264.471 280.478 264.146 280.615 263.565 280.615Z" fill="#939597"/>
<path d="M87.8112 272.367L66.1698 272.35C65.6375 272.349 65.3555 272.213 65.5406 272.044L68.6903 269.173C68.8753 269.004 69.4394 268.868 69.9509 268.868L90.7359 268.884C91.2474 268.885 91.5486 269.022 91.4087 269.191L89.0289 272.062C88.8882 272.231 88.3434 272.368 87.8112 272.367Z" fill="#939597"/>
<path d="M100.758 272.379L91.6942 272.371C91.162 272.37 90.8407 272.234 90.9762 272.065L93.2916 269.193C93.4278 269.025 93.9526 268.888 94.4641 268.888L103.169 268.895C103.681 268.895 104.002 269.033 103.887 269.202L101.93 272.074C101.816 272.242 101.291 272.379 100.758 272.379Z" fill="#939597"/>
<path d="M113.6 272.388L104.537 272.381C104.005 272.38 103.663 272.243 103.774 272.074L105.671 269.202C105.783 269.033 106.288 268.897 106.798 268.897L115.503 268.904C116.015 268.904 116.356 269.041 116.266 269.21L114.728 272.082C114.638 272.252 114.133 272.389 113.6 272.388Z" fill="#939597"/>
<path d="M126.495 272.398L117.431 272.391C116.899 272.391 116.537 272.253 116.624 272.084L118.099 269.212C118.186 269.043 118.671 268.907 119.182 268.907L127.888 268.914C128.399 268.915 128.76 269.052 128.694 269.22L127.578 272.093C127.513 272.262 127.028 272.399 126.495 272.398Z" fill="#939597"/>
<path d="M139.337 272.409L130.273 272.402C129.741 272.401 129.359 272.264 129.421 272.095L130.477 269.222C130.539 269.053 131.004 268.917 131.516 268.917L140.221 268.924C140.732 268.925 141.114 269.062 141.073 269.23L140.376 272.103C140.334 272.273 139.869 272.409 139.337 272.409Z" fill="#939597"/>
<path d="M152.179 272.418L143.115 272.41C142.582 272.41 142.18 272.273 142.218 272.104L142.855 269.231C142.893 269.062 143.337 268.926 143.848 268.926L152.553 268.933C153.065 268.933 153.466 269.07 153.45 269.239L153.172 272.112C153.157 272.281 152.712 272.418 152.179 272.418Z" fill="#939597"/>
<path d="M165.021 272.428L155.957 272.421C155.425 272.421 155.003 272.283 155.016 272.115L155.234 269.241C155.246 269.072 155.671 268.936 156.183 268.936L164.888 268.943C165.399 268.943 165.82 269.08 165.829 269.249L165.97 272.123C165.978 272.292 165.553 272.428 165.021 272.428Z" fill="#939597"/>
<path d="M177.862 272.439L168.798 272.431C168.266 272.431 167.825 272.294 167.813 272.125L167.611 269.251C167.599 269.083 168.004 268.946 168.515 268.946L177.221 268.953C177.732 268.954 178.173 269.091 178.207 269.259L178.768 272.133C178.799 272.303 178.395 272.439 177.862 272.439Z" fill="#939597"/>
<path d="M190.705 272.449L181.641 272.441C181.109 272.441 180.648 272.304 180.61 272.135L179.989 269.261C179.953 269.093 180.338 268.956 180.85 268.956L189.555 268.963C190.066 268.964 190.527 269.101 190.585 269.269L191.565 272.144C191.622 272.313 191.237 272.449 190.705 272.449Z" fill="#939597"/>
<path d="M203.546 272.458L194.482 272.451C193.95 272.45 193.469 272.313 193.407 272.144L192.367 269.27C192.305 269.101 192.67 268.964 193.182 268.965L201.887 268.972C202.398 268.972 202.879 269.109 202.962 269.278L204.361 272.153C204.444 272.322 204.079 272.458 203.546 272.458Z" fill="#939597"/>
<path d="M216.388 272.469L207.324 272.462C206.792 272.462 206.291 272.325 206.205 272.156L204.745 269.282C204.659 269.113 205.004 268.976 205.516 268.977L214.221 268.983C214.732 268.983 215.234 269.121 215.34 269.29L217.159 272.165C217.266 272.333 216.921 272.47 216.388 272.469Z" fill="#939597"/>
<path d="M229.23 272.479L220.166 272.472C219.634 272.471 219.113 272.334 219.002 272.165L217.122 269.29C217.012 269.122 217.337 268.985 217.848 268.985L226.553 268.992C227.065 268.993 227.586 269.13 227.717 269.298L229.955 272.174C230.087 272.343 229.762 272.48 229.23 272.479Z" fill="#939597"/>
<path d="M242.072 272.489L233.007 272.482C232.475 272.481 231.934 272.344 231.799 272.175L229.5 269.3C229.366 269.132 229.67 268.995 230.182 268.995L238.887 269.002C239.399 269.003 239.94 269.14 240.096 269.308L242.753 272.184C242.91 272.353 242.605 272.489 242.072 272.489Z" fill="#939597"/>
<path d="M254.967 272.499L245.903 272.491C245.37 272.491 244.809 272.354 244.649 272.185L241.93 269.309C241.77 269.14 242.055 269.003 242.566 269.004L251.272 269.011C251.783 269.012 252.344 269.149 252.525 269.317L255.603 272.193C255.784 272.363 255.499 272.5 254.967 272.499Z" fill="#939597"/>
<path d="M92.1952 276.437L61.7583 276.413C61.2009 276.413 60.8996 276.276 61.0847 276.107L64.2344 273.236C64.4194 273.068 65.0042 272.931 65.5401 272.932L94.8252 272.955C95.3611 272.955 95.6942 273.093 95.5684 273.262L93.4321 276.133C93.3055 276.301 92.7518 276.437 92.1952 276.437Z" fill="#939597"/>
<path d="M105.612 276.447L96.1297 276.44C95.5723 276.439 95.2199 276.302 95.3421 276.133L97.4184 273.262C97.5406 273.093 98.0735 272.957 98.6094 272.957L107.734 272.964C108.269 272.964 108.623 273.102 108.521 273.271L106.804 276.143C106.702 276.311 106.169 276.448 105.612 276.447Z" fill="#939597"/>
<path d="M119.102 276.458L109.62 276.451C109.062 276.451 108.69 276.313 108.787 276.144L110.442 273.272C110.539 273.103 111.053 272.967 111.589 272.967L120.713 272.974C121.249 272.974 121.622 273.111 121.545 273.28L120.249 276.152C120.172 276.323 119.659 276.459 119.102 276.458Z" fill="#939597"/>
<path d="M132.538 276.468L123.055 276.461C122.498 276.46 122.106 276.323 122.178 276.154L123.414 273.282C123.487 273.113 123.98 272.976 124.516 272.977L133.641 272.984C134.176 272.985 134.57 273.122 134.518 273.291L133.641 276.164C133.588 276.332 133.095 276.468 132.538 276.468Z" fill="#939597"/>
<path d="M145.973 276.479L136.491 276.471C135.933 276.471 135.521 276.334 135.569 276.165L136.386 273.292C136.434 273.123 136.907 272.987 137.443 272.987L146.567 272.994C147.103 272.994 147.516 273.132 147.489 273.301L147.031 276.174C147.003 276.343 146.53 276.479 145.973 276.479Z" fill="#939597"/>
<path d="M159.408 276.489L149.925 276.482C149.368 276.481 148.935 276.344 148.959 276.175L149.356 273.302C149.38 273.134 149.833 272.997 150.369 272.997L159.493 273.005C160.029 273.005 160.462 273.142 160.46 273.311L160.421 276.185C160.418 276.353 159.965 276.49 159.408 276.489Z" fill="#939597"/>
<path d="M172.843 276.5L163.36 276.492C162.803 276.492 162.351 276.355 162.349 276.186L162.328 273.312C162.326 273.144 162.76 273.007 163.296 273.007L172.42 273.015C172.956 273.015 173.408 273.152 173.431 273.321L173.812 276.195C173.833 276.364 173.4 276.5 172.843 276.5Z" fill="#939597"/>
<path d="M186.278 276.511L176.795 276.504C176.238 276.504 175.765 276.366 175.739 276.198L175.298 273.324C175.272 273.155 175.686 273.018 176.222 273.019L185.346 273.026C185.882 273.027 186.355 273.164 186.402 273.333L187.202 276.207C187.248 276.375 186.835 276.511 186.278 276.511Z" fill="#939597"/>
<path d="M199.714 276.521L190.231 276.513C189.673 276.513 189.181 276.376 189.131 276.207L188.271 273.333C188.22 273.164 188.613 273.027 189.149 273.028L198.273 273.035C198.809 273.036 199.302 273.173 199.373 273.341L200.592 276.216C200.664 276.385 200.27 276.521 199.714 276.521Z" fill="#939597"/>
<path d="M213.149 276.531L203.667 276.524C203.109 276.523 202.597 276.386 202.521 276.217L201.242 273.343C201.166 273.174 201.54 273.037 202.076 273.038L211.2 273.045C211.736 273.046 212.249 273.183 212.345 273.352L213.984 276.226C214.079 276.395 213.706 276.532 213.149 276.531Z" fill="#939597"/>
<path d="M226.584 276.542L217.101 276.535C216.544 276.535 216.012 276.397 215.912 276.229L214.213 273.354C214.113 273.186 214.467 273.049 215.003 273.049L224.126 273.057C224.662 273.057 225.195 273.194 225.316 273.363L227.374 276.238C227.494 276.406 227.14 276.543 226.584 276.542Z" fill="#939597"/>
<path d="M240.018 276.553L230.536 276.546C229.978 276.545 229.426 276.408 229.302 276.24L227.183 273.365C227.059 273.196 227.393 273.059 227.929 273.06L237.052 273.067C237.588 273.068 238.14 273.205 238.286 273.373L240.763 276.249C240.909 276.417 240.576 276.553 240.018 276.553Z" fill="#939597"/>
<path d="M259.278 276.568L244.027 276.556C243.469 276.555 242.897 276.418 242.747 276.25L240.208 273.375C240.059 273.206 240.372 273.069 240.908 273.07L255.582 273.081C256.117 273.082 256.699 273.219 256.88 273.388L259.959 276.264C260.139 276.432 259.834 276.568 259.278 276.568Z" fill="#939597"/>
<path d="M301.145 295.503C300.422 296.148 298.136 296.581 294.884 296.579L26.2034 296.368C22.9641 296.366 20.6916 295.932 19.9721 295.29C18.881 296.415 21.551 297.305 26.2027 297.309L294.883 297.52C299.544 297.524 302.232 296.634 301.145 295.503Z" fill="#F1F2F2"/>
<path d="M132.948 145.116C149.695 146.711 178.244 150.379 186.295 154.054C187.101 171.527 187.677 252.597 187.677 252.597H135.468C135.468 252.597 133.344 163.001 132.948 145.116Z" fill="#FF5500"/>
<path d="M160.949 196.983C168.514 182.815 176.787 162.753 179.739 152.023C168.539 149.27 153.284 147.29 141.493 146.002C143.282 153.032 151.245 178.886 160.949 196.983Z" fill="black"/>
<path d="M160.86 191.234C166.804 180.678 175.925 155.332 177.699 151.503C168.888 149.527 154.723 147.381 143.859 146.267C145.384 149.906 151.658 173.449 160.86 191.234Z" fill="#E6BEA6"/>
<path d="M160.405 154.951C154.237 154.951 151.657 149.911 151.657 145.873V132.75H169.153V150.457C169.153 154.195 166.572 154.951 160.405 154.951Z" fill="#E6BEA6"/>
<path d="M169.153 144.283V132.752H151.656V144.239C154.348 145.118 161.358 146.832 169.153 144.283Z" fill="#E5AE8A"/>
<path d="M143.374 116.845C144.919 120.849 144.888 123.932 142.273 125.092C139.661 126.252 134.011 124.724 132.466 120.72C130.919 116.711 131.786 112.525 134.401 111.365C137.014 110.206 141.83 112.839 143.374 116.845Z" fill="#E6BEA6"/>
<path d="M136.918 121.599C139.019 135.312 148.796 144.518 162.59 143.301C175.14 142.193 183.818 124.652 184.171 108.651C184.524 92.6497 175.949 79.9917 160.797 80.2264C137.59 80.5854 132.493 92.6985 136.918 121.599Z" fill="#E6BEA6"/>
<path d="M176.772 115.568C175.176 119.555 175.169 122.635 177.77 123.829C180.367 125.021 186.035 123.564 187.63 119.578C189.228 115.588 188.411 111.394 185.812 110.201C183.214 109.009 178.365 111.582 176.772 115.568Z" fill="#E6BEA6"/>
<path d="M156.674 114.12C160.35 113.384 163.447 113.988 164.136 116.715C164.825 119.441 161.107 121.105 158.055 121.463C155.003 121.822 153.814 114.692 156.674 114.12Z" fill="url(#paint0_linear_623_2731)"/>
<path d="M155.058 114.634C156.452 114.058 157.968 113.699 159.522 113.729C161.047 113.763 162.728 114.11 163.907 115.392C164.473 116.035 164.726 117.042 164.437 117.87C164.171 118.701 163.619 119.34 163.009 119.832C161.784 120.831 160.328 121.378 158.877 121.77C160.214 121.079 161.534 120.338 162.578 119.349C163.085 118.85 163.528 118.28 163.68 117.655C163.864 117.04 163.694 116.412 163.271 115.927C162.861 115.428 162.235 115.081 161.582 114.833C160.923 114.578 160.208 114.45 159.485 114.373C158.035 114.24 156.544 114.365 155.058 114.634Z" fill="#A56052"/>
<path d="M155.072 104.179C155.409 106.7 156.822 114.097 149.73 114.688C142.637 115.28 144.322 106.706 144.322 106.706C144.322 106.706 151.832 104.509 155.072 104.179Z" fill="url(#paint1_linear_623_2731)"/>
<path d="M152.718 113.955C152.584 114.473 152.055 114.784 151.538 114.649C151.021 114.514 150.71 113.986 150.844 113.469C150.979 112.951 151.507 112.641 152.024 112.775C152.542 112.909 152.853 113.438 152.718 113.955Z" fill="#64361A"/>
<path d="M153.542 103.728C145.41 104.293 140.949 107.526 146.117 107.485C151.285 107.444 158.905 103.355 153.542 103.728Z" fill="#023B44"/>
<path d="M163.046 104.179C162.71 106.7 161.296 114.097 168.389 114.688C175.482 115.28 173.795 106.706 173.795 106.706C173.795 106.706 166.286 104.509 163.046 104.179Z" fill="url(#paint2_linear_623_2731)"/>
<path d="M165.4 113.955C165.535 114.473 166.062 114.784 166.58 114.649C167.097 114.514 167.408 113.986 167.273 113.469C167.139 112.951 166.611 112.641 166.093 112.775C165.576 112.909 165.266 113.438 165.4 113.955Z" fill="#64361A"/>
<path d="M164.576 103.728C172.708 104.293 177.169 107.526 172.001 107.485C166.833 107.444 159.213 103.355 164.576 103.728Z" fill="#023B44"/>
<path d="M145.613 116.576C145.613 117.122 144.197 117.564 142.45 117.564C140.703 117.564 139.287 117.122 139.287 116.576C139.287 116.03 140.703 115.588 142.45 115.588C144.197 115.588 145.613 116.031 145.613 116.576Z" fill="#F2A09B"/>
<path d="M178.964 116.576C178.964 117.122 177.548 117.564 175.801 117.564C174.054 117.564 172.638 117.122 172.638 116.576C172.638 116.03 174.054 115.588 175.801 115.588C177.548 115.588 178.964 116.031 178.964 116.576Z" fill="#F2A09B"/>
<path d="M152.293 127.869C152.105 128.523 152.243 129.187 152.454 129.794C152.696 130.394 153.003 130.961 153.419 131.444C154.225 132.426 155.349 133.101 156.574 133.454C157.194 133.61 157.817 133.775 158.468 133.807C159.11 133.92 159.768 133.861 160.426 133.885C161.084 133.868 161.744 133.785 162.412 133.75C163.074 133.663 163.734 133.548 164.413 133.484C163.784 133.73 163.135 133.925 162.488 134.149C161.822 134.283 161.156 134.456 160.474 134.531C159.108 134.689 157.696 134.627 156.333 134.248C154.983 133.844 153.699 133.026 152.904 131.832C152.485 131.254 152.227 130.58 152.064 129.9C151.967 129.218 151.924 128.461 152.293 127.869Z" fill="#46271E"/>
<path d="M185.908 97.759C185.908 97.759 186.634 103.599 186.19 106.574C185.747 109.549 183.274 120.722 183.274 120.722C183.274 120.722 184.962 103.691 183.262 99.3261C183.829 102.557 183.659 107.262 180.654 112.307C181.164 101.536 176.289 96.2652 176.289 96.2652C176.289 96.2652 178.16 101.99 177.496 103.974C175.449 98.4844 167.261 91.0399 155.63 96.8093C164.376 96.8093 162.143 101.741 162.143 101.741C162.143 101.741 162.701 98.7635 156.56 99.3216C150.419 99.8798 141.021 103.044 137.432 97.927C137.432 97.927 136.481 100.875 136.209 106.98C135.937 113.085 136.663 120.737 136.663 120.737C131.796 114.982 131.108 109.292 130.685 100.48C130.092 105.734 127.125 104.293 127.125 104.293C127.125 104.293 130.091 103.615 129.414 98.7006C128.735 93.7862 130.431 87.2618 135.005 85.0492C135.005 85.0492 136.263 74.5298 144.938 71.3571C153.613 68.1845 167.326 71.7902 170.243 71.0329C173.337 70.2298 173.693 68.8618 173.693 68.8618C173.693 68.8618 173.988 70.5599 172.131 71.7598C170.274 72.9597 169.051 72.828 169.051 72.828C169.051 72.828 175.477 73.9901 179.523 77.3441C185.251 82.0935 187.286 89.0413 187.37 93.6174C187.455 98.1928 188.387 100.904 188.387 100.904C188.387 100.904 186.564 100.885 185.908 97.759Z" fill="#023B44"/>
<path d="M152.895 97.0712C153.757 97.8899 166.733 95.519 170.397 98.9248C168.5 96.2955 164.707 94.1829 159.922 94.1829C155.136 94.1829 152.895 97.0712 152.895 97.0712Z" fill="#023B44"/>
<path d="M177.469 78.1443C164.734 76.1501 151.84 76.1286 138.782 78.1443V60.4453C151.84 57.3038 164.735 57.3082 177.469 60.4453V78.1443Z" fill="#FF5500"/>
<path d="M199.056 60.5976L157.68 45.4968V46.8522L199.056 61.9529V60.5976Z" fill="#FF5500"/>
<path d="M116.302 60.5976L157.679 45.4968V46.8522L116.302 61.9529V60.5976Z" fill="#FF5500"/>
<path d="M96.4458 71.8294C98.4762 86.902 101.288 101.74 102.928 114.079C103.965 121.882 90.0761 128.114 88.2484 115.901C86.4208 103.687 85.0292 80.3332 84.8789 75.065C84.7271 69.7975 95.5886 65.4664 96.4458 71.8294Z" fill="#E6BEA6"/>
<path d="M67.8747 91.2753C67.8799 94.818 66.2714 96.1134 61.6767 95.1652C57.1236 94.2251 52.5408 89.7437 52.9302 85.4711C53.2137 82.3629 55.7838 81.6996 57.8682 82.0719C59.952 82.445 67.8643 84.5695 67.8747 91.2753Z" fill="#DBDBDB"/>
<path d="M54.2742 90.1331C53.8278 89.5069 53.4651 88.8111 53.2431 88.0612C53.0247 87.3165 52.9225 86.4993 53.1579 85.7036C53.4074 84.9041 54.1513 84.2919 54.9537 84.1135C55.7547 83.9226 56.5741 83.9729 57.3499 84.1165C58.9243 84.3874 60.3745 85.1543 61.6099 86.1373C62.8313 87.1441 63.8802 88.3765 64.5612 89.8415C64.7211 90.2123 64.8625 90.595 64.9476 91.0014C65.0453 91.4011 65.089 91.8283 65.0179 92.2842C64.9543 92.7306 64.6286 93.2554 64.1489 93.4242C63.6877 93.6152 63.2355 93.5841 62.8254 93.5204C62 93.3739 61.2672 93.0371 60.578 92.6462C59.8874 92.2561 59.2508 91.7824 58.6712 91.2479C58.0901 90.7164 57.5579 90.125 57.1211 89.4639C56.9035 89.1338 56.7014 88.7881 56.5578 88.4025C56.4831 88.2122 56.4327 88.0042 56.4179 87.7829C56.4046 87.5667 56.4483 87.2988 56.637 87.1093C56.8236 86.9183 57.0797 86.8731 57.2914 86.8776C57.5098 86.8805 57.7104 86.9338 57.9013 87.0005C58.284 87.1352 58.6231 87.3439 58.9377 87.5771C59.5669 88.0464 60.0784 88.6438 60.4922 89.2922C60.014 88.6904 59.4588 88.15 58.8259 87.7385C58.5091 87.5364 58.1708 87.3624 57.8177 87.2677C57.4816 87.1685 57.0634 87.1544 56.9005 87.3595C56.7325 87.549 56.8065 87.9339 56.9457 88.2529C57.0849 88.5831 57.2862 88.8984 57.5053 89.1997C57.9435 89.803 58.4721 90.3419 59.0465 90.8223C60.199 91.7498 61.5248 92.6077 62.9305 92.8579C63.2725 92.9105 63.6241 92.9097 63.8758 92.7928C64.1341 92.6906 64.2644 92.4685 64.3206 92.1673C64.4058 91.5396 64.1741 90.7986 63.8854 90.1457C62.6536 87.4838 60.1302 85.3364 57.2359 84.6754C56.5119 84.5066 55.7628 84.4355 55.0611 84.5695C54.3593 84.7005 53.7583 85.1551 53.497 85.8272C53.2416 86.5008 53.2697 87.2817 53.4311 88.0153C53.5999 88.7496 53.8945 89.4639 54.2742 90.1331Z" fill="#ABADAD"/>
<path d="M60.2464 79.0957C60.2464 79.0957 56.5038 81.2291 54.6621 82.4697C59.7394 82.2609 66.3889 86.5077 67.7524 92.6183C69.6696 89.1429 65.2563 81.7294 60.2464 79.0957Z" fill="#EEEEEE"/>
<path d="M90.9437 74.8158C87.9998 76.0608 82.5043 74.9675 81.3799 73.5811C82.072 70.6823 86.979 66.6865 86.979 66.6865L90.9437 74.8158Z" fill="#DFB091"/>
<path d="M67.1758 94.2526C68.1469 91.8513 68.4763 83.7132 55.771 77.1666C60.7727 74.8297 74.3864 66.1571 79.739 60.5595C83.2669 56.8694 85.5239 54.614 89.4183 49.4079C91.6382 46.4403 101.834 29.9931 101.834 29.9931C107.108 29.0175 113.702 39.2623 110.843 43.5186C106.554 46.7853 96.2987 56.5215 89.604 64.291C79.266 76.2872 67.1758 94.2526 67.1758 94.2526Z" fill="black"/>
<path d="M74.146 65.4128C76.3734 63.6969 78.3402 62.0225 79.7392 60.5591C83.165 56.9764 85.3975 54.7372 89.0891 49.8435C92.674 51.5083 94.9983 54.1524 96.3315 56.9993C93.9405 59.4554 91.611 61.9611 89.6035 64.2914C86.6234 67.7497 83.4981 71.704 80.5586 75.5814C80.019 71.8336 78.3801 68.3575 74.146 65.4128Z" fill="#FF5500"/>
<path d="M82.9969 54.0065C83.2323 53.227 84.3168 50.5733 85.9897 50.027C87.6626 49.4815 89.4806 50.4897 90.7435 52.8643C91.8042 54.86 92.0293 57.0081 90.403 58.4005C89.0239 59.5812 87.6804 58.0696 87.6804 58.0696L82.9969 54.0065Z" fill="#DFB091"/>
<path d="M79.7693 56.7323C80.6716 55.1711 82.2187 53.2991 84.1004 53.6144C85.9821 53.9298 88.0044 55.8603 88.9 57.7501C89.7957 59.6399 88.7416 61.2211 87.6653 61.6023C86.589 61.9835 85.5039 61.6519 85.5039 61.6519L79.7693 56.7323Z" fill="#DD9C79"/>
<path d="M76.2106 60.1665C76.5259 58.9629 77.2217 57.2418 78.2751 56.6778C79.2255 56.1685 80.2034 56.0323 81.4832 56.868C82.3027 57.4032 85.1851 59.5269 85.9935 61.2443C86.4583 62.2317 86.5923 63.5553 85.3236 64.5316C84.1303 65.4503 82.2583 64.5805 82.2583 64.5805L76.2106 60.1665Z" fill="#DD9677"/>
<path d="M75.0118 64.8031C75.9496 65.6292 77.0407 66.4679 78.4672 67.2281C79.8262 67.9521 81.2556 68.3266 82.2453 67.348C83.5614 66.0467 82.8997 64.3049 81.7849 62.8985C80.3673 61.1094 77.174 59.3846 75.4537 60.096C74.5313 60.4772 74.028 60.911 73.6105 61.5875C73.0146 62.5528 73.0916 64.1369 73.8111 65.6736C74.2893 65.3568 75.0118 64.8031 75.0118 64.8031Z" fill="#DD9C79"/>
<path d="M97.2949 62.9468C97.0218 61.8076 96.5325 59.7704 96.3356 58.7297C96.0432 57.1848 95.7116 57.3277 94.1778 57.1234C90.3212 56.6089 88.5521 56.0286 87.6793 55.8331C86.8066 55.637 84.2765 55.1151 84.6688 58.4499C84.9035 60.4433 88.937 61.986 88.937 61.986C88.937 61.986 84.8154 67.6961 87.0627 71.9302C89.3101 76.1636 93.9306 76.4693 96.3386 72.5831C98.4593 69.1588 97.9404 65.6397 97.2949 62.9468Z" fill="#E6BEA6"/>
<path d="M141.54 146.424C141.54 146.424 123.981 136.67 112.306 129.798C100.979 123.13 90.4347 135.192 95.0893 141.029C102.777 150.669 135.679 174.984 135.679 174.984L141.54 146.424Z" fill="#FF5500"/>
<path d="M178.447 182.386C178.447 182.386 186.233 203.886 193.488 220.431C199.494 234.128 214.28 223.35 211.891 213.176C207.574 194.788 186.302 154.009 186.302 154.009L178.447 182.386Z" fill="#FF5500"/>
<path d="M99.1285 75.1597C97.5022 79.6766 86.2093 85.007 83.0477 81.9358C85.8584 123.07 92.8943 138.237 95.0891 141.028C97.4571 144.04 114.325 138.281 112.861 130.811C110.151 116.989 101.387 85.5496 99.1285 75.1597Z" fill="#FF5500"/>
<path d="M173.784 150.684C169.265 161.286 150.654 161.578 147.824 146.704C146.467 146.546 145.139 146.4 143.859 146.268C145.384 149.906 151.658 173.45 160.861 191.235C166.804 180.679 175.925 155.333 177.7 151.504C176.49 151.234 175.173 150.959 173.784 150.684Z" fill="white"/>
<path d="M192.869 215.122C192.869 215.122 194.798 244.257 194.935 252.639C198.227 252.639 212.188 252.653 213.11 252.653C212.975 236.316 212.803 218.093 211.888 213.819C210.971 209.544 192.869 215.122 192.869 215.122Z" fill="#FF5500"/>
<path d="M293.777 190.571C293.777 191.211 293.259 191.729 292.62 191.729C291.98 191.729 291.462 191.211 291.462 190.571C291.462 189.932 291.98 189.414 292.62 189.414C293.259 189.414 293.777 189.932 293.777 190.571Z" stroke="#008EAE" stroke-width="0.740232" stroke-miterlimit="10"/>
<path d="M308.829 217.736C311.338 217.736 313.371 215.703 313.371 213.194C313.371 210.686 311.338 208.652 308.829 208.652C306.321 208.652 304.287 210.686 304.287 213.194C304.287 215.703 306.321 217.736 308.829 217.736Z" stroke="#008EAE" stroke-width="0.740232" stroke-miterlimit="10"/>
<path d="M308.562 198.767C308.562 199.701 307.805 200.459 306.87 200.459C305.935 200.459 305.178 199.702 305.178 198.767C305.178 197.832 305.935 197.075 306.87 197.075C307.805 197.075 308.562 197.832 308.562 198.767Z" stroke="#008EAE" stroke-width="0.740232" stroke-miterlimit="10"/>
<path d="M305.64 171.352C305.64 172.14 305.001 172.779 304.213 172.779C303.425 172.779 302.786 172.14 302.786 171.352C302.786 170.563 303.425 169.925 304.213 169.925C305.001 169.925 305.64 170.563 305.64 171.352Z" stroke="#008EAE" stroke-width="0.740232" stroke-miterlimit="10"/>
<path d="M31.9941 229.466C31.9941 230.592 31.0814 231.506 29.9547 231.506C28.8288 231.506 27.9154 230.593 27.9154 229.466C27.9154 228.34 28.8281 227.427 29.9547 227.427C31.0806 227.428 31.9941 228.34 31.9941 229.466Z" stroke="#008EAE" stroke-width="0.740232" stroke-miterlimit="10"/>
<path d="M4.05815 251.08C5.74739 251.08 7.11679 249.711 7.11679 248.021C7.11679 246.332 5.74739 244.963 4.05815 244.963C2.36891 244.963 0.999512 246.332 0.999512 248.021C0.999512 249.711 2.36891 251.08 4.05815 251.08Z" stroke="#008EAE" stroke-width="0.740232" stroke-miterlimit="10"/>
<path d="M35.8683 266.883C35.8683 267.953 35.0007 268.82 33.9311 268.82C32.8614 268.82 31.9939 267.953 31.9939 266.883C31.9939 265.814 32.8614 264.946 33.9311 264.946C35.0007 264.946 35.8683 265.813 35.8683 266.883Z" stroke="#008EAE" stroke-width="0.740232" stroke-miterlimit="10"/>
<path d="M53.49 112.095L55.6766 116.527L60.5673 117.238L57.0283 120.688L57.864 125.559L53.49 123.259L49.1152 125.559L49.9509 120.688L46.4119 117.238L51.3026 116.527L53.49 112.095Z" fill="white"/>
<path d="M48.9528 146.925L49.4865 148.007L50.6797 148.18L49.8159 149.021L50.0202 150.209L48.9528 149.648L47.8861 150.209L48.0897 149.021L47.2266 148.18L48.4191 148.007L48.9528 146.925Z" fill="white"/>
<path d="M247.138 106.594L248.443 109.237L251.359 109.661L249.249 111.718L249.747 114.623L247.138 113.251L244.53 114.623L245.028 111.718L242.917 109.661L245.834 109.237L247.138 106.594Z" fill="white"/>
<path d="M208.296 86.0381L209.392 88.2588L211.842 88.6148L210.069 90.3433L210.488 92.7846L208.296 91.632L206.104 92.7846L206.522 90.3433L204.749 88.6148L207.199 88.2588L208.296 86.0381Z" fill="white"/>
<path d="M272.656 139.187L274.297 142.513L277.968 143.046L275.312 145.635L275.939 149.29L272.656 147.564L269.373 149.29L270 145.635L267.344 143.046L271.015 142.513L272.656 139.187Z" fill="white"/>
<defs>
<linearGradient id="paint0_linear_623_2731" x1="163.878" y1="115.865" x2="157.261" y2="117.928" gradientUnits="userSpaceOnUse">
<stop stop-color="#D18178"/>
<stop offset="1" stop-color="#F6B9AD" stop-opacity="0"/>
</linearGradient>
<linearGradient id="paint1_linear_623_2731" x1="149.66" y1="104.629" x2="149.942" y2="113.263" gradientUnits="userSpaceOnUse">
<stop stop-color="#D89A68"/>
<stop offset="1" stop-color="#D89A68" stop-opacity="0"/>
</linearGradient>
<linearGradient id="paint2_linear_623_2731" x1="168.458" y1="104.629" x2="168.176" y2="113.263" gradientUnits="userSpaceOnUse">
<stop stop-color="#D89A68"/>
<stop offset="1" stop-color="#D89A68" stop-opacity="0"/>
</linearGradient>
</defs>
</svg>
