<svg width="42" height="42" viewBox="0 0 42 42" fill="none" xmlns="http://www.w3.org/2000/svg">
<path d="M38.7922 15.29C38.7748 14.8639 38.7334 14.4392 38.668 14.0178C38.5919 13.5718 38.4904 13.1305 38.364 12.696C37.7338 10.7788 36.6723 9.03165 35.2612 7.58884L35.1371 7.47715V7.4399C33.7365 6.0884 32.035 5.08878 30.1726 4.52329C29.7401 4.39753 29.3009 4.29603 28.857 4.21922C28.4464 4.1504 28.0319 4.10688 27.6159 4.0889C26.8484 4.05938 26.0804 4.13242 25.3323 4.3061C24.6922 4.45235 24.0788 4.6973 23.514 5.03215C23.0269 5.31026 22.5938 5.67393 22.2357 6.10571C21.786 6.63971 21.4824 7.28111 21.3545 7.96738V10.0711C21.6543 9.28036 22.1599 8.58409 22.819 8.05426C23.1961 7.7396 23.6135 7.47665 24.0601 7.27236C24.5638 7.05125 25.0934 6.89487 25.6363 6.80694C26.2522 6.7125 26.8772 6.69167 27.498 6.74488C28.1796 6.81138 28.8518 6.9529 29.5024 7.16687C30.9501 7.66284 32.2659 8.48201 33.3499 9.56222C34.4312 10.6477 35.2505 11.9658 35.7452 13.4159C35.9602 14.0662 36.1018 14.7385 36.1672 15.4203C36.2209 16.0411 36.2001 16.6661 36.1051 17.2819C36.021 17.8258 35.8645 18.3559 35.6397 18.8582C35.439 19.3053 35.178 19.7229 34.864 20.0993C34.3148 20.7522 33.6015 21.247 32.7976 21.5328H34.9013C35.5875 21.4048 36.2289 21.1012 36.7629 20.6516C37.1907 20.3 37.5503 19.8731 37.8241 19.3918C38.1605 18.8256 38.4055 18.2099 38.5501 17.5674C38.7349 16.8229 38.8164 16.0566 38.7922 15.29Z" fill="url(#paint0_linear_385_2008)"/>
<path d="M34.5295 18.7469C34.8075 18.3076 35.0167 17.8283 35.15 17.3258C35.274 16.774 35.3323 16.2096 35.3238 15.6441C35.2914 15.0138 35.1873 14.3892 35.0135 13.7824C34.8146 13.114 34.531 12.4738 34.1696 11.8773C33.7711 11.2464 33.3118 10.6562 32.7981 10.1149L32.7113 10.0405L32.5685 9.88533C32.0877 9.44409 31.5614 9.0551 30.9985 8.72489C30.4144 8.36919 29.7893 8.08579 29.1368 7.88094C28.5301 7.70719 27.9055 7.6031 27.2752 7.57066C26.7078 7.56525 26.1416 7.62353 25.5873 7.74441C25.0861 7.88172 24.6075 8.09074 24.1662 8.36497C23.7795 8.60933 23.4391 8.92027 23.1609 9.28339C22.6638 9.95024 22.3745 10.7489 22.3293 11.5795C22.3074 11.9935 22.3199 12.4086 22.3666 12.8206C22.5975 12.1769 22.9882 11.6024 23.5022 11.1513C24.0929 10.6677 24.802 10.3507 25.5562 10.2328C25.761 10.2018 25.972 10.177 26.1768 10.1646C26.3959 10.1524 26.6155 10.1524 26.8346 10.1646C27.058 10.1646 27.2876 10.2142 27.5172 10.2577C27.7468 10.3011 27.9764 10.3756 28.2122 10.4501C29.1965 10.7816 30.0922 11.3334 30.831 12.0635C31.5549 12.8133 32.1001 13.717 32.4258 14.7071C32.4994 14.9334 32.5615 15.1633 32.612 15.3959C32.6582 15.6232 32.6893 15.8533 32.705 16.0847C32.705 16.3081 32.705 16.5253 32.705 16.7425C32.705 16.9597 32.6616 17.1707 32.6306 17.3631C32.5166 18.1184 32.1991 18.8285 31.7122 19.4171C31.2638 19.9342 30.6885 20.3256 30.0429 20.5527C30.4546 20.6025 30.87 20.615 31.284 20.59C32.1145 20.5499 32.9141 20.2625 33.58 19.7646C33.9531 19.4829 34.2744 19.1386 34.5295 18.7469Z" fill="url(#paint1_linear_385_2008)"/>
<path d="M31.2213 18.6098C31.4559 18.2894 31.6323 17.9302 31.7425 17.5487C31.8569 17.1663 31.9113 16.7686 31.9039 16.3696C31.9095 15.9332 31.851 15.4983 31.7301 15.0789C31.4619 14.1442 30.965 13.291 30.2842 12.5966C29.5918 11.9134 28.738 11.416 27.802 11.1507C27.382 11.0325 26.9475 10.974 26.5113 10.977C26.1139 10.9712 25.7182 11.0278 25.3384 11.1445C24.9568 11.2565 24.5962 11.4305 24.271 11.6596C23.9712 11.8855 23.7093 12.1578 23.4953 12.4663C23.1109 13.0484 22.8647 13.7106 22.7755 14.4024C22.7274 14.7501 22.7005 15.1003 22.6948 15.4512C22.8989 14.979 23.2014 14.5559 23.5822 14.2101C23.9804 13.8687 24.4587 13.6339 24.9723 13.5275C25.5717 13.4246 26.187 13.4669 26.7666 13.6509C27.3462 13.8349 27.8733 14.1552 28.3037 14.5849C28.734 15.0146 29.055 15.5413 29.2398 16.1206C29.4246 16.7 29.4678 17.3153 29.3658 17.9148C29.2562 18.4273 29.0217 18.9047 28.6832 19.3048C28.3402 19.6888 27.9163 19.9919 27.4421 20.1922C27.7931 20.1896 28.1435 20.1626 28.4908 20.1116C29.1829 20.0235 29.8454 19.7772 30.427 19.3917C30.7329 19.1765 31.0012 18.9123 31.2213 18.6098Z" fill="url(#paint2_linear_385_2008)"/>
<path d="M28.4719 18.2192C28.6679 17.7112 28.7131 17.1575 28.6022 16.6244C28.5327 16.3463 28.435 16.076 28.3106 15.8177C28.1438 15.5713 27.9547 15.3407 27.7459 15.1288V15.0978L27.5101 14.9054C27.3614 14.7841 27.2037 14.6741 27.0384 14.5766C26.781 14.4485 26.5106 14.3486 26.2317 14.2787C25.6636 14.1557 25.0712 14.2177 24.5408 14.4555C24.0105 14.6933 23.5701 15.0945 23.2841 15.6005C22.9997 16.0986 22.7906 16.636 22.6635 17.1953C22.589 17.4808 22.5332 17.7662 22.4897 18.033C22.6475 17.715 22.8572 17.4256 23.1103 17.1767C23.3532 16.9471 23.6433 16.7734 23.9605 16.6678C24.273 16.5731 24.6049 16.5622 24.923 16.6362C25.241 16.7103 25.534 16.8667 25.7725 17.0898C25.9966 17.3277 26.1542 17.6204 26.2294 17.9384C26.3046 18.2565 26.2946 18.5888 26.2007 18.9018C26.0918 19.2174 25.9185 19.507 25.6918 19.752C25.4376 20.0016 25.1467 20.2109 24.8292 20.3726C25.1023 20.3229 25.3815 20.2671 25.667 20.1988C26.2271 20.0744 26.7649 19.8651 27.2618 19.5782C27.8072 19.275 28.2337 18.7959 28.4719 18.2192Z" fill="url(#paint3_linear_385_2008)"/>
<path d="M20.4483 6.09987C20.0902 5.66808 19.6571 5.30441 19.17 5.02629C18.6035 4.69039 17.9879 4.4454 17.3455 4.30024C16.5995 4.12653 15.8335 4.05349 15.0681 4.08305C14.6521 4.10103 14.2376 4.14455 13.827 4.21337C13.3812 4.29083 12.94 4.39234 12.5052 4.51744C10.5737 5.10429 8.81624 6.15729 7.38774 7.58362C5.95925 9.00995 4.90358 10.7658 4.31381 12.6964C4.18736 13.1308 4.08583 13.5722 4.00974 14.0182C3.93828 14.4388 3.89681 14.8639 3.88562 15.2903C3.85022 16.0559 3.92335 16.8227 4.10282 17.5678C4.24814 18.2091 4.49091 18.8244 4.82267 19.3922C5.10083 19.8775 5.46455 20.3086 5.89623 20.6643C6.43069 21.1133 7.07189 21.4168 7.7579 21.5455H9.86159C9.06991 21.2443 8.37198 20.739 7.83857 20.081C7.52245 19.7062 7.26127 19.2883 7.06288 18.8399C6.83529 18.3387 6.67864 17.8082 6.59746 17.2637C6.50255 16.6478 6.48172 16.0228 6.53541 15.402C6.59566 14.72 6.73519 14.0473 6.95118 13.3976C7.46632 11.9362 8.29926 10.6073 9.38997 9.50672C10.4688 8.44704 11.7705 7.64143 13.2002 7.14861C13.8506 6.9342 14.5229 6.79267 15.2046 6.72662C15.8254 6.67353 16.4504 6.69436 17.0663 6.78868C17.6092 6.87661 18.1388 7.033 18.6425 7.2541C19.0891 7.45839 19.5065 7.72134 19.8836 8.036C20.5409 8.56749 21.0462 9.26324 21.3481 10.0528V7.94912C21.2127 7.2654 20.9027 6.62834 20.4483 6.09987Z" fill="url(#paint4_linear_385_2008)"/>
<path d="M20.3619 11.5668C20.3219 10.7362 20.0344 9.93666 19.5366 9.27071C19.2584 8.90759 18.918 8.59663 18.5313 8.35227C18.09 8.07804 17.6113 7.86903 17.1102 7.73172C16.5558 7.61083 15.9897 7.55255 15.4223 7.55796C14.7919 7.58992 14.1673 7.69402 13.5606 7.86824C12.8932 8.06979 12.2532 8.35327 11.6555 8.7122C11.0197 9.0863 10.4302 9.53413 9.89933 10.0464C9.37675 10.5822 8.91666 11.1755 8.5279 11.815C8.17083 12.4129 7.88942 13.0528 7.69014 13.7201C7.51344 14.3262 7.40929 14.9511 7.37986 15.5818C7.36825 16.1474 7.42662 16.7122 7.55362 17.2635C7.68694 17.766 7.8962 18.2452 8.17418 18.6846C8.42244 19.072 8.73516 19.4141 9.09881 19.6961C9.76366 20.196 10.5639 20.4836 11.3949 20.5214C11.8089 20.5464 12.2242 20.534 12.636 20.4842C11.9896 20.2586 11.4139 19.8669 10.9667 19.3486C10.4773 18.7615 10.1595 18.0507 10.0483 17.2945C10.0107 17.0894 9.98588 16.8821 9.97379 16.674C9.97379 16.4568 9.97379 16.2396 9.97379 16.0162C9.99051 15.7852 10.0195 15.5552 10.0607 15.3273C10.1165 15.0977 10.1786 14.8681 10.253 14.6385C10.5885 13.6528 11.1422 12.7555 11.8727 12.0136C12.6115 11.2835 13.5072 10.7317 14.4915 10.4001C14.7273 10.3256 14.9569 10.2636 15.1803 10.2077C15.4037 10.1519 15.6457 10.1395 15.8691 10.1147C16.0882 10.1024 16.3078 10.1024 16.5269 10.1147C16.7441 10.1147 16.9551 10.1519 17.1474 10.1829C17.8998 10.3007 18.6069 10.6178 19.1953 11.1013C19.713 11.5491 20.1045 12.1246 20.3309 12.7706C20.3793 12.3712 20.3897 11.9681 20.3619 11.5668Z" fill="url(#paint5_linear_385_2008)"/>
<path d="M13.2997 17.9086C13.198 17.3097 13.2412 16.6951 13.4257 16.1163C13.6102 15.5375 13.9306 15.0113 14.3602 14.5817C14.7897 14.1522 15.3159 13.8317 15.8948 13.6472C16.4736 13.4627 17.0881 13.4195 17.6871 13.5213C18.2029 13.6267 18.6833 13.8616 19.0833 14.2039C19.4641 14.5497 19.7667 14.9728 19.9707 15.445C19.9628 15.094 19.9338 14.7438 19.8838 14.3963C19.7975 13.7037 19.5511 13.0408 19.164 12.4601C18.9522 12.1518 18.6924 11.8795 18.3945 11.6534C18.0694 11.4243 17.7088 11.2503 17.3271 11.1383C16.9451 11.022 16.5474 10.9655 16.1481 10.9708C15.7139 10.9683 15.2815 11.0268 14.8635 11.1446C13.9276 11.4098 13.0738 11.9072 12.3813 12.5904C11.699 13.2847 11.1999 14.1377 10.9292 15.0727C10.8148 15.4934 10.7564 15.9274 10.7554 16.3634C10.7532 16.7626 10.8096 17.1598 10.923 17.5425C11.0332 17.924 11.2097 18.2832 11.4443 18.6036C11.667 18.9063 11.9398 19.1687 12.251 19.3793C12.8325 19.7648 13.495 20.0111 14.1871 20.0992C14.5344 20.1503 14.8848 20.1772 15.2359 20.1799C14.7616 19.9795 14.3377 19.6764 13.9947 19.2925C13.6498 18.8973 13.4107 18.4212 13.2997 17.9086Z" fill="url(#paint6_linear_385_2008)"/>
<path d="M19.977 17.1892C19.85 16.6299 19.6408 16.0925 19.3565 15.5944C19.0704 15.0884 18.63 14.6872 18.0997 14.4494C17.5694 14.2116 16.9769 14.1496 16.4088 14.2726C15.8508 14.3911 15.3384 14.6667 14.9319 15.0669C14.7282 15.2858 14.5473 15.525 14.392 15.7805C14.2649 16.0377 14.167 16.3083 14.1003 16.5873C13.9894 17.1203 14.0347 17.6741 14.2307 18.1821C14.4644 18.7526 14.8843 19.2272 15.4221 19.5287C15.9174 19.8144 16.453 20.0237 17.0107 20.1493C17.3024 20.2175 17.5817 20.2734 17.8547 20.323C17.5372 20.1613 17.2463 19.9521 16.9921 19.7024C16.7654 19.4574 16.5921 19.1679 16.4833 18.8523C16.3893 18.5392 16.3794 18.207 16.4546 17.8889C16.5297 17.5708 16.6873 17.2781 16.9115 17.0403C17.1499 16.8172 17.4429 16.6608 17.761 16.5867C18.079 16.5126 18.411 16.5235 18.7235 16.6183C19.0406 16.7238 19.3308 16.8975 19.5737 17.1271C19.8248 17.3777 20.0343 17.6668 20.1942 17.9835C20.1073 17.7601 20.0453 17.4747 19.977 17.1892Z" fill="url(#paint7_linear_385_2008)"/>
<path d="M23.1239 33.8263C23.4055 34.1863 23.7453 34.4967 24.1292 34.7447C24.5705 35.019 25.0491 35.228 25.5503 35.3653C26.1046 35.4862 26.6708 35.5445 27.2382 35.539C27.869 35.5074 28.494 35.4011 29.0998 35.2226C29.7665 35.0215 30.4047 34.7358 30.9988 34.3724C31.5545 34.0354 32.0744 33.6424 32.5501 33.1995C32.5936 33.1623 32.637 33.1064 32.6805 33.063L32.7611 32.9948C33.2744 32.4532 33.7337 31.8629 34.1326 31.2324C34.494 30.6359 34.7776 29.9957 34.9765 29.3273C35.1498 28.7204 35.2539 28.0959 35.2868 27.4656C35.2957 26.9001 35.2373 26.3356 35.113 25.7839C34.9797 25.2814 34.7705 24.8021 34.4925 24.3628C34.2442 23.9754 33.9315 23.6332 33.5679 23.3513C32.9019 22.8534 32.1023 22.566 31.2718 22.526C30.8578 22.5009 30.4424 22.5134 30.0307 22.5632C30.6763 22.7903 31.2516 23.1817 31.7 23.6988C32.1859 24.2857 32.5033 24.9935 32.6184 25.7466C32.6184 25.9514 32.6805 26.1624 32.6929 26.3672C32.7053 26.572 32.6929 26.8016 32.6929 27.025C32.6819 27.2644 32.6549 27.5028 32.6122 27.7386C32.5618 27.9712 32.4996 28.2011 32.426 28.4274C32.0903 29.4112 31.5366 30.3064 30.8064 31.0462C30.0699 31.7806 29.1736 32.3349 28.1876 32.6659C27.9518 32.7403 27.7222 32.8024 27.4926 32.8582C27.263 32.9141 27.0334 32.9265 26.81 32.9513C26.5866 32.9761 26.3632 32.9513 26.1522 32.9513C25.9412 32.9513 25.724 32.9141 25.5316 32.8831C24.7774 32.7652 24.0683 32.4481 23.4776 31.9646C22.9515 31.5154 22.5497 30.9384 22.311 30.2891C22.2642 30.7011 22.2517 31.1162 22.2737 31.5302C22.3243 32.3627 22.6201 33.1616 23.1239 33.8263Z" fill="url(#paint8_linear_385_2008)"/>
<path d="M23.3101 27.5027C23.5962 28.0086 24.0366 28.4098 24.5669 28.6476C25.0972 28.8855 25.6897 28.9474 26.2578 28.8245C26.5366 28.7545 26.8071 28.6547 27.0645 28.5266C27.2298 28.429 27.3875 28.3191 27.5361 28.1977L27.6478 28.1046L27.7782 27.9929C27.9845 27.7777 28.1637 27.5381 28.3118 27.2793C28.4362 27.021 28.534 26.7507 28.6035 26.4726C28.7148 25.9395 28.6695 25.3857 28.4732 24.8777C28.2379 24.3063 27.8156 23.8315 27.2755 23.5311C26.7786 23.2443 26.2408 23.035 25.6807 22.9106C25.3952 22.8423 25.116 22.7865 24.8429 22.7368C25.1617 22.8964 25.4529 23.1059 25.7055 23.3574C25.9308 23.6011 26.1039 23.8883 26.2144 24.2013C26.3095 24.5152 26.32 24.8488 26.2448 25.168C26.1696 25.4873 26.0114 25.7811 25.7862 26.0196C25.5477 26.2427 25.2547 26.3991 24.9366 26.4732C24.6186 26.5472 24.2866 26.5363 23.9741 26.4415C23.6581 26.3337 23.3684 26.1603 23.124 25.9327C22.8709 25.6837 22.6612 25.3943 22.5034 25.0763C22.5469 25.3432 22.6027 25.6286 22.6772 25.9141C22.8098 26.4716 23.0231 27.0067 23.3101 27.5027Z" fill="url(#paint9_linear_385_2008)"/>
<path d="M38.5759 25.5294C38.4245 24.8851 38.171 24.2692 37.825 23.705C37.5488 23.2182 37.1848 22.7869 36.7515 22.4328C36.2178 21.9814 35.5765 21.6757 34.8898 21.5454H32.7985C33.5879 21.851 34.2848 22.3555 34.8215 23.0099C35.1328 23.3883 35.3935 23.8055 35.5972 24.2511C35.8211 24.7558 35.9776 25.2879 36.0627 25.8335C36.1576 26.4493 36.1784 27.0743 36.1247 27.6951C36.0593 28.3769 35.9177 29.0492 35.7027 29.6995C35.208 31.1497 34.3887 32.4677 33.3074 33.5532C32.2234 34.6334 30.9076 35.4526 29.4599 35.9486C28.8094 36.1625 28.1372 36.304 27.4555 36.3705C26.8346 36.4206 26.21 36.3998 25.5939 36.3085C25.0509 36.2206 24.5213 36.0642 24.0176 35.8431C23.571 35.6388 23.1536 35.3758 22.7765 35.0612C22.1172 34.529 21.6117 33.8307 21.312 33.0381V35.148C21.4413 35.8339 21.7447 36.4749 22.1932 37.0097C22.5513 37.4415 22.9844 37.8052 23.4716 38.0833C24.0376 38.4156 24.6506 38.6604 25.2898 38.8093C26.0378 38.9839 26.8062 39.0548 27.5734 39.0203C27.9895 39.0074 28.4042 38.9659 28.8146 38.8962C29.2584 38.8194 29.6976 38.7179 30.1301 38.5921C32.0442 38.0094 33.7868 36.9677 35.2063 35.5576C36.9847 33.8267 38.1669 31.5753 38.5821 29.1286C38.6474 28.7073 38.6889 28.2825 38.7062 27.8565C38.7717 27.0785 38.7278 26.2952 38.5759 25.5294Z" fill="url(#paint10_linear_385_2008)"/>
<path d="M29.36 25.1883C29.4665 25.7897 29.4267 26.4078 29.2439 26.9906C29.0611 27.5733 28.7407 28.1034 28.3098 28.5362C27.8789 28.9689 27.3501 29.2916 26.7681 29.4768C26.1862 29.6621 25.5682 29.7045 24.9664 29.6005C24.4534 29.4923 23.9756 29.2577 23.5764 28.9179C23.1956 28.5721 22.893 28.1489 22.689 27.6768C22.6946 28.0276 22.7216 28.3779 22.7696 28.7255C22.8578 29.4157 23.1041 30.0761 23.4895 30.6554C23.7002 30.9666 23.9625 31.2394 24.2652 31.4622C24.5886 31.6956 24.9496 31.8719 25.3325 31.9834C25.7123 32.1002 26.1081 32.1567 26.5054 32.151C26.9417 32.1539 27.3762 32.0954 27.7961 31.9772C28.7321 31.7119 29.5859 31.2146 30.2784 30.5313C30.9591 29.8369 31.456 28.9838 31.7243 28.0491C31.8447 27.6296 31.9032 27.1948 31.898 26.7583C31.9054 26.3593 31.851 25.9616 31.7367 25.5793C31.6265 25.1977 31.45 24.8386 31.2154 24.5181C30.9928 24.2154 30.7199 23.953 30.4087 23.7424C29.8272 23.357 29.1647 23.1106 28.4726 23.0226C28.1253 22.9715 27.7748 22.9445 27.4238 22.9419C27.8965 23.1423 28.3199 23.4429 28.6649 23.8231C29.0024 24.2161 29.2408 24.6842 29.36 25.1883Z" fill="url(#paint11_linear_385_2008)"/>
<path d="M19.865 35.036C19.4879 35.3507 19.0705 35.6136 18.6239 35.8179C18.1202 36.039 17.5906 36.1954 17.0476 36.2834C16.4314 36.3745 15.8069 36.3953 15.186 36.3454C14.5043 36.2794 13.832 36.1379 13.1816 35.9234C11.7327 35.4261 10.4152 34.6072 9.32791 33.5281C8.25081 32.4392 7.43219 31.1222 6.93256 29.6744C6.71657 29.0247 6.57704 28.3521 6.51679 27.67C6.4631 27.0492 6.48393 26.4242 6.57884 25.8084C6.66094 25.2621 6.81754 24.7297 7.04426 24.2259C7.24563 23.7791 7.50657 23.3616 7.81996 22.9848C8.36344 22.3323 9.0669 21.832 9.86159 21.5327H7.7579C7.07146 21.6638 6.43033 21.9694 5.89623 22.4201C5.46455 22.7759 5.10083 23.2069 4.82267 23.6923C4.48993 24.2596 4.2471 24.875 4.10282 25.5167C3.92335 26.2618 3.85022 27.0285 3.88562 27.7941C3.89681 28.2206 3.93828 28.6457 4.00974 29.0663C4.42495 31.513 5.60714 33.7644 7.38557 35.4953C8.80045 36.8991 10.5365 37.9364 12.4431 38.5174C12.8779 38.6425 13.3191 38.744 13.7649 38.8214C14.1753 38.8912 14.59 38.9326 15.006 38.9456C15.7712 38.9801 16.5376 38.9091 17.2835 38.7346C17.925 38.5867 18.5402 38.3418 19.1079 38.0085C19.6122 37.7552 20.0663 37.4125 20.4483 36.997C20.8968 36.4623 21.2002 35.8212 21.3295 35.1353V33.0254C21.0258 33.8123 20.5208 34.5057 19.865 35.036Z" fill="url(#paint12_linear_385_2008)"/>
<path d="M8.13032 24.3506C7.85234 24.7899 7.64308 25.2691 7.50976 25.7716C7.38238 26.3228 7.32401 26.8878 7.33601 27.4534C7.36589 28.084 7.47004 28.7088 7.64629 29.315C7.84557 29.9823 8.12697 30.6222 8.48404 31.2201C8.89052 31.8647 9.36484 32.4638 9.89891 33.0073L9.93614 33.0508C10.4502 33.5544 11.0232 33.9941 11.6427 34.3602C12.2399 34.7154 12.8802 34.9928 13.5478 35.1855C14.1536 35.3646 14.7785 35.4708 15.4095 35.502C15.9768 35.5074 16.543 35.4491 17.0974 35.3282C17.5985 35.1909 18.0771 34.9819 18.5185 34.7077C18.9024 34.4597 19.2422 34.1493 19.5238 33.7893C20.0216 33.1233 20.309 32.3237 20.3491 31.4932C20.3773 31.0793 20.3648 30.6636 20.3119 30.2521C20.1 30.9081 19.7191 31.4967 19.2073 31.9586C18.6189 32.4422 17.9118 32.7593 17.1594 32.877C16.9546 32.9081 16.7437 32.9329 16.5389 32.9453C16.3341 32.9577 16.1045 32.9453 15.8811 32.9453C15.6577 32.9453 15.4219 32.8956 15.1923 32.8522C14.9627 32.8088 14.7393 32.7343 14.5034 32.6598C13.5174 32.3289 12.6212 31.7746 11.8847 31.0402C11.1545 30.3004 10.6008 29.4052 10.265 28.4214C10.1906 28.1918 10.1285 27.9622 10.0727 27.7326C10.0319 27.5046 10.0029 27.2747 9.98579 27.0438C9.98579 26.8204 9.98579 26.6032 9.98579 26.386C9.99813 26.1778 10.023 25.9706 10.0603 25.7654C10.1726 25.0115 10.4903 24.3029 10.9787 23.7176C11.4259 23.1992 12.0016 22.8076 12.648 22.582C12.2362 22.5322 11.8208 22.5197 11.4069 22.5448C10.5759 22.5825 9.77566 22.8702 9.1108 23.3701C8.72983 23.6379 8.3981 23.9696 8.13032 24.3506Z" fill="url(#paint13_linear_385_2008)"/>
<path d="M11.4374 24.4865C11.2028 24.8069 11.0264 25.1661 10.9162 25.5476C10.8028 25.9303 10.7463 26.3276 10.7486 26.7267C10.7496 27.1627 10.808 27.5967 10.9224 28.0175C11.1931 28.9525 11.6921 29.8055 12.3745 30.4997C13.0669 31.183 13.9207 31.6803 14.8567 31.9456C15.2746 32.0634 15.707 32.1219 16.1412 32.1193C16.5406 32.1246 16.9383 32.0681 17.3203 31.9518C17.7032 31.8402 18.0642 31.6639 18.3877 31.4305C18.6885 31.2077 18.9488 30.9348 19.1572 30.6238C19.5452 30.0459 19.7918 29.3847 19.877 28.6939C19.927 28.3463 19.956 27.9961 19.9639 27.6451C19.7598 28.1173 19.4573 28.5404 19.0765 28.8862C18.6756 29.2272 18.1955 29.4619 17.6802 29.5689C17.0813 29.6706 16.4667 29.6274 15.8879 29.4429C15.3091 29.2584 14.7829 28.938 14.3533 28.5084C13.9238 28.0788 13.6033 27.5526 13.4188 26.9738C13.2343 26.395 13.1912 25.7804 13.2929 25.1815C13.4011 24.6667 13.6357 24.1868 13.9755 23.7853C14.3205 23.4051 14.744 23.1044 15.2166 22.9041C14.8656 22.9067 14.5152 22.9337 14.1679 22.9847C13.4758 23.0728 12.8133 23.3191 12.2317 23.7046C11.923 23.9165 11.6541 24.1812 11.4374 24.4865Z" fill="url(#paint14_linear_385_2008)"/>
<path d="M14.1869 24.8777C13.9857 25.3932 13.9404 25.9564 14.0566 26.4974C14.1233 26.7764 14.2211 27.047 14.3483 27.3041C14.5051 27.5586 14.6859 27.7976 14.8882 28.0178V28.0488C15.0902 28.2323 15.3107 28.3945 15.546 28.5328C15.8029 28.6618 16.0735 28.7618 16.3527 28.8307C16.9207 28.9536 17.5132 28.8916 18.0436 28.6538C18.5739 28.416 19.0143 28.0148 19.3003 27.5089C19.5836 27.0103 19.7927 26.473 19.9209 25.9141C19.9891 25.6286 20.0512 25.3432 20.0946 25.0763C19.9347 25.393 19.7252 25.6821 19.4741 25.9327C19.2297 26.1603 18.94 26.3337 18.6239 26.4415C18.3114 26.5363 17.9795 26.5472 17.6614 26.4732C17.3434 26.3991 17.0504 26.2427 16.8119 26.0196C16.5867 25.7811 16.4284 25.4873 16.3533 25.168C16.2781 24.8488 16.2886 24.5152 16.3837 24.2013C16.4941 23.8883 16.6673 23.6011 16.8926 23.3574C17.1452 23.1059 17.4364 22.8964 17.7551 22.7368C17.4821 22.7865 17.2028 22.8423 16.9112 22.9106C16.3534 23.0362 15.8178 23.2454 15.3226 23.5311C14.8044 23.8408 14.4047 24.3148 14.1869 24.8777Z" fill="url(#paint15_linear_385_2008)"/>
<defs>
<linearGradient id="paint0_linear_385_2008" x1="21.3297" y1="12.8139" x2="38.7984" y2="12.8139" gradientUnits="userSpaceOnUse">
<stop stop-color="#E53282"/>
<stop offset="1" stop-color="#851D7B"/>
</linearGradient>
<linearGradient id="paint1_linear_385_2008" x1="22.2797" y1="14.0865" x2="35.3052" y2="14.0865" gradientUnits="userSpaceOnUse">
<stop stop-color="#E53282"/>
<stop offset="1" stop-color="#851D7B"/>
</linearGradient>
<linearGradient id="paint2_linear_385_2008" x1="22.6886" y1="15.5753" x2="31.9101" y2="15.5753" gradientUnits="userSpaceOnUse">
<stop stop-color="#E53282"/>
<stop offset="1" stop-color="#851D7B"/>
</linearGradient>
<linearGradient id="paint3_linear_385_2008" x1="22.5084" y1="17.2946" x2="28.6581" y2="17.2946" gradientUnits="userSpaceOnUse">
<stop stop-color="#E53282"/>
<stop offset="1" stop-color="#851D7B"/>
</linearGradient>
<linearGradient id="paint4_linear_385_2008" x1="3.8546" y1="12.8143" x2="21.3295" y2="12.8143" gradientUnits="userSpaceOnUse">
<stop stop-color="#F08504"/>
<stop offset="1" stop-color="#E5322D"/>
</linearGradient>
<linearGradient id="paint5_linear_385_2008" x1="7.35504" y1="14.0862" x2="20.3805" y2="14.0862" gradientUnits="userSpaceOnUse">
<stop stop-color="#F08504"/>
<stop offset="1" stop-color="#E5322D"/>
</linearGradient>
<linearGradient id="paint6_linear_385_2008" x1="10.7492" y1="15.5753" x2="19.9707" y2="15.5753" gradientUnits="userSpaceOnUse">
<stop stop-color="#F08504"/>
<stop offset="1" stop-color="#E5322D"/>
</linearGradient>
<linearGradient id="paint7_linear_385_2008" x1="13.9948" y1="17.2947" x2="20.1508" y2="17.2947" gradientUnits="userSpaceOnUse">
<stop stop-color="#F08504"/>
<stop offset="1" stop-color="#E5322D"/>
</linearGradient>
<linearGradient id="paint8_linear_385_2008" x1="22.373" y1="36.2092" x2="36.8816" y2="22.7121" gradientUnits="userSpaceOnUse">
<stop stop-color="#97BE11"/>
<stop offset="1" stop-color="#258F2D"/>
</linearGradient>
<linearGradient id="paint9_linear_385_2008" x1="18.7863" y1="32.3617" x2="33.3011" y2="18.8645" gradientUnits="userSpaceOnUse">
<stop stop-color="#97BE11"/>
<stop offset="1" stop-color="#258F2D"/>
</linearGradient>
<linearGradient id="paint10_linear_385_2008" x1="23.9556" y1="37.9157" x2="38.4704" y2="24.4186" gradientUnits="userSpaceOnUse">
<stop stop-color="#97BE11"/>
<stop offset="1" stop-color="#258F2D"/>
</linearGradient>
<linearGradient id="paint11_linear_385_2008" x1="20.6411" y1="34.3477" x2="35.1498" y2="20.8568" gradientUnits="userSpaceOnUse">
<stop stop-color="#97BE11"/>
<stop offset="1" stop-color="#258F2D"/>
</linearGradient>
<linearGradient id="paint12_linear_385_2008" x1="17.1221" y1="37.5803" x2="6.09481" y2="24.5176" gradientUnits="userSpaceOnUse">
<stop stop-color="#3AB4E6"/>
<stop offset="1" stop-color="#004996"/>
</linearGradient>
<linearGradient id="paint13_linear_385_2008" x1="18.8598" y1="36.1163" x2="7.82624" y2="23.0536" gradientUnits="userSpaceOnUse">
<stop stop-color="#3AB4E6"/>
<stop offset="1" stop-color="#004996"/>
</linearGradient>
<linearGradient id="paint14_linear_385_2008" x1="20.752" y1="34.5147" x2="9.72468" y2="21.452" gradientUnits="userSpaceOnUse">
<stop stop-color="#3AB4E6"/>
<stop offset="1" stop-color="#004996"/>
</linearGradient>
<linearGradient id="paint15_linear_385_2008" x1="22.8003" y1="32.7898" x2="11.7668" y2="19.7271" gradientUnits="userSpaceOnUse">
<stop stop-color="#3AB4E6"/>
<stop offset="1" stop-color="#004996"/>
</linearGradient>
</defs>
</svg>
