<svg width="42" height="42" viewBox="0 0 42 42" fill="none" xmlns="http://www.w3.org/2000/svg">
<path d="M31.1247 27.0473C31.1123 26.8605 31.0888 26.6746 31.0543 26.4906L31.0159 26.2538C30.9461 25.8332 30.8455 25.4182 30.7152 25.0123L30.6448 24.7627C30.4284 24.1676 30.1806 23.5845 29.9024 23.0156L27.4962 26.4138C26.4407 27.9198 25.1634 29.2575 23.7077 30.3814C22.5275 31.2875 21.2095 31.9983 19.804 32.4869C17.8592 33.2098 15.7504 33.3717 13.7181 32.954C11.3955 32.4908 9.23897 31.4148 7.47219 29.8375C5.84995 28.4168 4.54216 26.673 3.63249 24.7179C3.54667 25.2255 3.49961 25.739 3.4917 26.2538C3.50537 26.8967 3.56095 27.538 3.65809 28.1736L3.7093 28.3912C3.82102 29.0046 3.98152 29.608 4.18926 30.1959C4.42762 30.8899 4.72521 31.5622 5.07878 32.2053C5.30276 32.6149 5.48196 32.9221 5.64835 33.2036C5.81473 33.4852 6.05791 33.7924 6.2883 34.0932C8.54705 37.1204 11.9004 39.1439 15.6315 39.7311C16.8275 39.9188 18.0426 39.9532 19.2473 39.8335C20.7904 39.7632 22.3081 39.4141 23.7269 38.8032L23.9317 38.7008C24.4357 38.4565 24.9251 38.183 25.3972 37.8817C27.242 36.7131 28.7594 35.0945 29.8065 33.178C30.6736 31.5612 31.1368 29.7586 31.1567 27.924C31.1503 27.6105 31.1439 27.3289 31.1247 27.0473Z" fill="url(#paint0_linear_385_2065)"/>
<path d="M38.957 21.7099C39.5522 23.6693 39.7245 25.7328 39.4626 27.7638C39.0778 30.4255 37.9712 32.9309 36.2628 35.008C34.5642 37.1164 32.3033 38.7006 29.7417 39.5773C28.1934 40.1036 26.5477 40.2806 24.9229 40.0956C27.0484 39.0464 28.8868 37.4958 30.2793 35.5776C31.5704 33.7923 32.4052 31.7183 32.7111 29.5364C32.9247 27.9705 32.8092 26.3772 32.3719 24.8584C31.6447 22.321 30.2965 20.005 28.449 18.1197C27.7773 17.3599 27.0289 16.6715 26.2156 16.0655L26.0748 15.9503L25.8508 15.8095C25.7531 15.7514 25.6591 15.6873 25.5692 15.6175L25.2621 15.4256C25.1619 15.3728 25.0657 15.3129 24.9741 15.2464L24.8461 15.1696C24.7335 15.1171 24.6245 15.0572 24.5197 14.9904C24.4164 14.9249 24.3096 14.8651 24.1998 14.8112C24.1091 14.7729 24.0214 14.728 23.9374 14.6768C23.8049 14.5949 23.6657 14.5243 23.5214 14.4656C22.9391 14.1777 22.2927 13.8833 21.6016 13.5889L21.6976 13.5185C21.8639 13.4289 22.0303 13.3265 22.2095 13.2113C22.3887 13.0961 22.6063 12.9617 22.8495 12.8466C24.5085 11.9642 26.3967 11.6071 28.2634 11.8226C30.4677 12.0997 32.5509 12.9862 34.279 14.3824C35.375 15.2625 36.3252 16.3099 37.0947 17.4862C37.9199 18.7948 38.5474 20.218 38.957 21.7099Z" fill="url(#paint1_linear_385_2065)"/>
<path d="M19.4254 13.1085C17.9811 14.2345 16.7129 15.5696 15.6625 17.0698L13.269 20.4487C12.9884 19.8876 12.7406 19.3106 12.5267 18.7208L12.4435 18.4393C12.3146 18.0442 12.2162 17.6399 12.1491 17.2298L12.1171 17.0122C12.0851 16.8138 12.0531 16.609 12.0339 16.4362C12.0339 16.161 12.034 15.8731 12.002 15.5979C12.0042 14.6978 12.1181 13.8014 12.3411 12.9293C12.5711 12.0403 12.9039 11.1813 13.333 10.3695C14.3632 8.44674 15.865 6.81723 17.6975 5.63387C19.8743 4.21337 22.4129 3.44712 25.0121 3.42605C28.059 3.40055 31.0366 4.33414 33.5235 6.09464C34.0354 6.45941 34.541 6.89457 35.0977 7.37454C35.6095 7.87574 36.0924 8.40562 36.544 8.96161L36.7296 9.21119C37.1277 9.7207 37.483 10.2622 37.7919 10.8303C37.9839 11.163 38.1567 11.4702 38.3231 11.8222C38.4895 12.1742 38.5663 12.3981 38.6751 12.6925L38.8223 13.0765C38.9182 13.3453 39.0078 13.5948 39.0718 13.8444C39.1614 14.1964 39.2446 14.5484 39.315 14.9067C39.4462 15.5384 39.5148 16.1815 39.5198 16.8266C39.5368 17.3064 39.5046 17.7868 39.4238 18.2601C38.4801 16.3344 37.1464 14.6258 35.5073 13.2429C33.6863 11.7114 31.495 10.6852 29.1526 10.2671C27.0898 9.89075 24.9625 10.1128 23.0219 10.9071L22.8171 11.0031C22.3735 11.2006 21.9456 11.4316 21.5372 11.6942L21.2748 11.8542L20.8589 12.1102C20.6349 12.2702 20.4493 12.3981 20.2893 12.4941C20.1101 12.601 19.939 12.7208 19.7773 12.8525C19.679 12.9287 19.5765 12.9992 19.4702 13.0637L19.4254 13.1085Z" fill="url(#paint2_linear_385_2065)"/>
<path d="M21.4611 29.8816C21.0323 30.0992 20.5971 30.3104 20.1812 30.5216L20.1044 30.5536C18.4362 31.4132 16.5394 31.7245 14.684 31.4431C12.5539 31.142 10.549 30.2559 8.89244 28.8833C7.03375 27.3299 5.60941 25.3213 4.75837 23.0534L4.71997 22.9382C4.70139 22.8859 4.68002 22.8346 4.65598 22.7846L4.4 21.9846C4.37803 21.8878 4.33666 21.7963 4.27841 21.7159C3.5552 19.6633 3.37877 17.4578 3.76646 15.3164C4.21834 12.7182 5.35614 10.2879 7.06219 8.27692C8.77147 6.2348 11.0198 4.71371 13.5513 3.88686C15.0545 3.38652 16.6489 3.22053 18.2229 3.4005C16.0996 4.45063 14.2652 6.00386 12.8793 7.92495C11.5968 9.70824 10.7686 11.7775 10.4667 13.9533C10.2573 15.4935 10.3706 17.0604 10.7995 18.5545C11.5647 21.0486 12.9014 23.3297 14.7032 25.2164C15.3532 25.9719 16.0756 26.662 16.8598 27.277C18.2935 28.3111 19.8366 29.1846 21.4611 29.8816Z" fill="url(#paint3_linear_385_2065)"/>
<defs>
<linearGradient id="paint0_linear_385_2065" x1="29.896" y1="26.1514" x2="2.73016" y2="35.6162" gradientUnits="userSpaceOnUse">
<stop stop-color="#004996"/>
<stop offset="1" stop-color="#3AB4E6"/>
</linearGradient>
<linearGradient id="paint1_linear_385_2065" x1="26.3244" y1="13.1985" x2="34.5797" y2="39.1869" gradientUnits="userSpaceOnUse">
<stop stop-color="#851D7B"/>
<stop offset="1" stop-color="#E53282"/>
</linearGradient>
<linearGradient id="paint2_linear_385_2065" x1="12.0212" y1="16.3594" x2="37.6639" y2="9.03201" gradientUnits="userSpaceOnUse">
<stop stop-color="#E5322D"/>
<stop offset="1" stop-color="#F08504"/>
</linearGradient>
<linearGradient id="paint3_linear_385_2065" x1="19.7268" y1="29.5872" x2="7.20298" y2="4.85319" gradientUnits="userSpaceOnUse">
<stop stop-color="#258F2D"/>
<stop offset="1" stop-color="#97BE11"/>
</linearGradient>
</defs>
</svg>
