<svg width="42" height="42" viewBox="0 0 42 42" fill="none" xmlns="http://www.w3.org/2000/svg">
<path d="M8.91578 14.0491C8.91578 14.1447 8.91578 14.288 8.95673 14.4723C8.99769 14.841 9.07277 15.3529 9.18199 15.9263C9.32882 16.5729 9.5181 17.2091 9.74857 17.8308C10.0147 18.5008 10.3414 19.1452 10.7247 19.7558C10.9158 20.0561 11.1138 20.336 11.3117 20.6022C11.5097 20.8684 11.7486 21.121 11.9602 21.3463C12.3426 21.75 12.7633 22.1158 13.2162 22.4385C15.0183 23.8037 18.0423 24.1177 20.2267 23.8037C20.2651 23.8152 20.3061 23.8147 20.3443 23.8024C20.3825 23.79 20.416 23.7664 20.4405 23.7346C20.4649 23.7027 20.4791 23.6642 20.4811 23.6241C20.4832 23.5841 20.473 23.5443 20.4519 23.5102C20.0196 21.6234 20.3326 19.6425 21.3257 17.981C21.9037 17.0841 22.5916 16.2632 23.3735 15.5372L23.6875 15.2369C23.9777 14.9903 24.2832 14.7623 24.6022 14.5543C25.6641 13.8654 26.8445 13.3793 28.0835 13.1208C29.4687 12.8473 30.8897 12.8058 32.2884 12.9979C32.789 13.0652 33.2857 13.1586 33.7765 13.2778L34.3363 13.4348C34.3192 12.5243 34.1721 11.621 33.8994 10.7521C33.5971 9.83365 33.1748 8.95917 32.6434 8.15136C31.4503 6.35199 29.8016 4.90107 27.8651 3.94646C25.8162 2.91181 23.5454 2.39391 21.2506 2.43789C18.9726 2.47294 16.7401 3.08095 14.7589 4.20585C12.8865 5.238 11.3186 6.74468 10.2127 8.57457C9.26557 10.1739 8.80535 12.0148 8.88847 13.8717L8.91578 14.0491Z" fill="url(#paint0_linear_385_1951)"/>
<path d="M40.7052 24.684C40.6369 24.1448 40.5413 23.6123 40.4253 23.0935C40.1654 22.0978 39.7753 21.1407 39.2649 20.247C38.3705 18.613 37.0053 17.2859 35.3467 16.4381L34.8415 16.1923C34.3957 15.994 33.94 15.8186 33.4763 15.6667C32.1573 15.2273 30.77 15.0284 29.3806 15.0797C26.4181 15.1343 23.0869 17.0729 21.8719 19.858C21.8552 19.909 21.8552 19.964 21.8719 20.015C21.8837 20.0608 21.9101 20.1015 21.947 20.131C23.05 21.2249 24.0614 22.4075 24.971 23.6669C25.7683 25.0459 26.3464 26.5405 26.6843 28.0971V28.2131C26.7137 28.314 26.7365 28.4166 26.7526 28.5203C26.7935 28.7797 26.855 29.1688 26.8959 29.6603C26.9197 30.2297 26.9014 30.8001 26.8413 31.3668C26.7532 32.0482 26.6024 32.72 26.3908 33.3737C26.2747 33.715 26.1451 34.0563 26.0017 34.4113C25.8584 34.7662 25.6809 35.0939 25.5102 35.3874C25.1866 35.9851 24.812 36.5538 24.3907 37.0871C24.0859 37.4882 23.7553 37.869 23.401 38.2271L22.9845 38.6435C24.6542 39.5519 26.5496 39.9618 28.4455 39.8244C30.5949 39.6808 32.6688 38.9746 34.4593 37.7766C36.3772 36.5311 37.9582 34.8316 39.062 32.8288C40.1659 30.8259 40.7584 28.5817 40.7871 26.295C40.7956 25.7568 40.7683 25.2186 40.7052 24.684Z" fill="url(#paint1_linear_385_1951)"/>
<path d="M24.1183 33.5581C25.0262 31.8789 25.0399 29.8447 24.8692 27.9948C24.8193 26.5556 24.3806 25.1568 23.5995 23.9469C22.5278 24.9231 20.7803 25.0528 19.3946 25.1552C18.7149 25.2322 18.0308 25.2641 17.3468 25.2507C16.2817 25.2028 15.2268 25.0217 14.2068 24.7115L13.804 24.5749C13.4379 24.4528 13.0818 24.3022 12.7392 24.1244C12.2336 23.8694 11.7516 23.5702 11.2989 23.2302C11.0463 23.0322 10.7732 22.8206 10.5139 22.5885C10.2545 22.3565 10.0224 22.1039 9.76981 21.8309C9.28112 21.2801 8.84035 20.6886 8.45235 20.0629C8.11032 19.4758 7.80705 18.867 7.54448 18.2403C7.32605 17.6806 7.16222 17.1754 7.053 16.8136C6.9944 16.6277 6.94654 16.4385 6.90966 16.2471C5.29982 17.2302 4.00251 18.6506 3.16893 20.3427C2.23277 22.2693 1.80062 24.4019 1.91293 26.5409C2.02954 28.8353 2.717 31.0642 3.91298 33.0257C5.09214 34.9844 6.73259 36.6248 8.69127 37.804C10.5219 38.8988 12.6067 39.4965 14.7392 39.5378C16.6033 39.5753 18.4361 39.0547 20.0022 38.0429L20.4732 37.7153C20.8716 37.4292 21.2523 37.1192 21.6131 36.7869C22.1102 36.3459 22.5671 35.8616 22.9784 35.3398C23.2036 35.0599 23.4152 34.78 23.6132 34.4797C23.8112 34.1793 23.9545 33.8721 24.1183 33.5581Z" fill="url(#paint2_linear_385_1951)"/>
<defs>
<linearGradient id="paint0_linear_385_1951" x1="15.1207" y1="22.4931" x2="27.633" y2="2.47202" gradientUnits="userSpaceOnUse">
<stop stop-color="#E5322D"/>
<stop offset="1" stop-color="#F08504"/>
</linearGradient>
<linearGradient id="paint1_linear_385_1951" x1="22.9777" y1="19.2573" x2="36.63" y2="36.0905" gradientUnits="userSpaceOnUse">
<stop stop-color="#004996"/>
<stop offset="1" stop-color="#3AB4E6"/>
</linearGradient>
<linearGradient id="paint2_linear_385_1951" x1="3.98124" y1="32.7527" x2="22.4118" y2="21.8308" gradientUnits="userSpaceOnUse">
<stop stop-color="#97BE11"/>
<stop offset="1" stop-color="#258F2D"/>
</linearGradient>
</defs>
</svg>
