<svg width="42" height="42" viewBox="0 0 42 42" fill="none" xmlns="http://www.w3.org/2000/svg">
<path d="M11.1296 31.3802C14.3423 34.6997 18.2945 37.2123 22.6636 38.7127C19.4663 40.7936 13.4153 38.8316 8.54011 33.9697C3.66493 29.1077 1.68315 23.0567 3.76402 19.8462C5.27153 24.2197 7.79597 28.1728 11.1296 31.3802Z" fill="url(#paint0_linear_385_1894)"/>
<path d="M34.1653 34.7818C33.873 35.3576 33.4918 35.8837 33.0357 36.3408C31.1728 38.2037 28.2728 38.7256 24.9699 38.0716L24.3093 37.9329C24.0913 37.88 23.8799 37.8272 23.6487 37.7611C19.8437 36.6975 15.6423 34.1939 11.9496 30.4946C8.25686 26.7953 5.75321 22.6005 4.68305 18.7955C4.61699 18.5775 4.55753 18.3661 4.50469 18.1349C4.45184 17.9037 4.40559 17.6989 4.36596 17.4743C3.70536 14.1713 4.23385 11.2713 6.09672 9.40844C6.55734 8.95178 7.08536 8.56858 7.66232 8.27222C7.36226 10.2597 7.49979 12.2887 8.06528 14.2176C8.27155 15.0029 8.52524 15.775 8.82496 16.5296C8.90423 16.7344 8.99672 16.9458 9.08259 17.1506C9.16847 17.3554 9.26757 17.58 9.36665 17.8112C10.9532 21.1433 13.1157 24.169 15.7546 26.749C18.3217 29.3609 21.3266 31.5027 24.633 33.0775L25.2936 33.3616L25.9145 33.6192C26.6713 33.913 27.443 34.1666 28.2266 34.3789C29.5442 34.7412 30.903 34.9322 32.2694 34.947C32.9049 34.9454 33.5391 34.8901 34.1653 34.7818Z" fill="url(#paint1_linear_385_1894)"/>
<path d="M39.6681 26.1082C39.7352 27.1265 39.5941 28.1478 39.2534 29.1098C38.9126 30.0718 38.3794 30.9543 37.6863 31.7034C37.23 32.165 36.7011 32.5489 36.1207 32.8396C35.896 32.9616 35.6618 33.0654 35.4205 33.1501C35.1941 33.241 34.9625 33.3182 34.7269 33.3813C32.6783 33.8525 30.5421 33.7796 28.5305 33.1699C27.5606 32.9097 26.6112 32.5785 25.6899 32.179L25.0293 31.8751C24.7915 31.7562 24.5471 31.6439 24.3093 31.5184C18.6322 28.519 13.9911 23.878 10.9917 18.2009C10.8662 17.963 10.7473 17.7186 10.635 17.4808C10.5227 17.243 10.4302 17.0316 10.3378 16.8202C9.93721 15.9009 9.60383 14.9538 9.34025 13.9863C8.72906 11.9724 8.65843 9.83312 9.13547 7.78329C9.20153 7.54548 9.2742 7.31427 9.36008 7.08967C9.44606 6.86381 9.54532 6.64322 9.65734 6.42908C9.95467 5.84143 10.3425 5.30419 10.8068 4.83705C11.5362 4.16068 12.3936 3.63694 13.3283 3.29661C14.2631 2.95628 15.2565 2.80623 16.2501 2.85527H16.3888C16.2299 2.979 16.0798 3.11365 15.9396 3.25823C15.0624 4.15355 14.4655 5.28538 14.222 6.51495C14.1824 6.70653 14.1494 6.9047 14.1163 7.10288C14.0833 7.30106 14.0701 7.49924 14.0569 7.71063C13.7464 11.8922 16.1444 17.3619 20.6628 21.8804C24.9236 26.1412 30.03 28.4863 34.1059 28.4863C34.3503 28.4863 34.5881 28.4863 34.8259 28.4863C35.0638 28.4863 35.2421 28.4863 35.4469 28.4202C35.6535 28.3936 35.8586 28.3561 36.0613 28.3079C36.3775 28.2418 36.6888 28.1535 36.9927 28.0437C37.8536 27.7385 38.6363 27.2467 39.2849 26.6036C39.4239 26.4475 39.552 26.2819 39.6681 26.1082Z" fill="url(#paint2_linear_385_1894)"/>
<path d="M39.9454 21.3786C39.947 21.8349 39.9072 22.2903 39.8265 22.7394C39.7577 23.1676 39.6403 23.5864 39.4764 23.9879C39.2301 24.6279 38.8545 25.2103 38.3732 25.6989C37.6521 26.3964 36.7508 26.8791 35.7705 27.0927C35.5657 27.1456 35.3609 27.1786 35.1495 27.2116C34.9381 27.2447 34.74 27.2579 34.4889 27.2645C30.7236 27.4825 25.6964 25.1902 21.4818 20.9756C17.2673 16.761 14.9618 11.7273 15.1864 7.94872C15.1957 7.74306 15.2156 7.53801 15.2458 7.33437C15.2725 7.13648 15.31 6.94021 15.3581 6.74644C15.5608 5.74919 16.0471 4.83165 16.7586 4.10407C17.2294 3.63382 17.7883 3.26116 18.4035 3.00748C18.8264 2.83679 19.2675 2.71489 19.7181 2.64416C20.1866 2.55835 20.662 2.51633 21.1383 2.51865H21.5677C22.1293 2.5436 22.6881 2.61207 23.239 2.72343C23.0962 2.8013 22.9593 2.88962 22.8295 2.98767C22.6335 3.12305 22.4501 3.27559 22.2812 3.44348C22.1359 3.59192 21.9991 3.74852 21.8716 3.9125C20.8873 5.23368 20.6297 6.99747 21.0194 8.96604C21.0723 9.23908 21.1383 9.50993 21.2176 9.77857C21.2969 10.0758 21.396 10.3797 21.5083 10.677C22.4201 13.0081 23.8212 15.1165 25.6172 16.8601C27.358 18.6546 29.4645 20.0537 31.7937 20.9624C32.0976 21.0747 32.3949 21.1738 32.6921 21.2531C32.9656 21.3347 33.2435 21.4009 33.5245 21.4513C34.0765 21.5652 34.6387 21.6228 35.2024 21.623C35.9243 21.6321 36.6422 21.5136 37.3229 21.2729C37.7681 21.1173 38.1869 20.8945 38.5648 20.6123C38.7311 20.4926 38.8859 20.3577 39.0272 20.2093C39.1873 20.0488 39.3353 19.8766 39.4698 19.6941C39.5663 19.5632 39.6545 19.4264 39.734 19.2845C39.8447 19.84 39.9131 20.4032 39.9388 20.969C39.9388 21.0747 39.9454 21.2399 39.9454 21.3786Z" fill="url(#paint3_linear_385_1894)"/>
<path d="M39.1528 16.4507C39.1528 16.6819 39.1528 16.8999 39.1528 17.1113C39.1077 17.5057 39.0099 17.8923 38.8622 18.2607C38.7658 18.4924 38.6463 18.7137 38.5055 18.9213C38.3972 19.0748 38.2756 19.2185 38.1421 19.3507L38.0629 19.43C36.854 20.5596 34.8193 20.6653 32.5799 19.9254C32.2496 19.8131 31.9193 19.6876 31.5758 19.5423C31.2323 19.3969 30.8029 19.1855 30.4132 18.9742C27.5312 17.3696 25.1542 14.9926 23.5496 12.1106C23.3382 11.7309 23.1464 11.3407 22.9749 10.9413C22.8296 10.611 22.7041 10.2807 22.5984 9.95705C21.8585 7.71764 21.9378 5.68302 23.0806 4.46752L23.1665 4.38165C23.3004 4.25004 23.4439 4.12859 23.5959 4.01832C23.8012 3.872 24.0229 3.75007 24.2565 3.65499C24.6268 3.50861 25.016 3.4152 25.4125 3.37754C25.6206 3.35056 25.8302 3.33732 26.0401 3.33791C26.4074 3.34027 26.7741 3.37119 27.1366 3.43039C27.2622 3.43039 27.3943 3.47003 27.5264 3.49645C27.5023 3.52344 27.4802 3.55214 27.4603 3.58233C27.3367 3.74818 27.2325 3.92772 27.1499 4.11741C27.0105 4.42739 26.9107 4.75363 26.8526 5.08848C26.8178 5.32028 26.8002 5.55432 26.7997 5.78871C26.7935 6.04697 26.8068 6.30534 26.8394 6.5616C26.8797 6.88081 26.9437 7.19657 27.031 7.50625C27.5943 9.38805 28.6342 11.0924 30.0499 12.4541C31.6132 14.1359 33.6816 15.2629 35.9424 15.6646C36.1612 15.6951 36.382 15.7105 36.6029 15.7108H36.6888C36.9103 15.7095 37.1313 15.6896 37.3494 15.6514C37.6855 15.5985 38.0124 15.4984 38.3205 15.3541C38.5153 15.2778 38.6979 15.1732 38.8622 15.0436C38.8959 15.0325 38.9257 15.0118 38.9481 14.9842C38.9481 15.1229 39.0009 15.255 39.0207 15.3871C39.092 15.7377 39.1362 16.0933 39.1528 16.4507Z" fill="url(#paint4_linear_385_1894)"/>
<path d="M38.9936 12.7845C38.9439 12.9984 38.8614 13.2034 38.7492 13.3922C38.709 13.4608 38.6649 13.5269 38.6171 13.5904C38.5634 13.6616 38.5061 13.7299 38.4453 13.7952L38.3198 13.9009C38.1613 14.0386 37.9803 14.1481 37.7847 14.2246C37.4134 14.3746 37.0159 14.4487 36.6155 14.4426C36.3451 14.4381 36.0756 14.4116 35.8095 14.3633C35.4833 14.3059 35.1627 14.2197 34.8517 14.1057C33.3785 13.5386 32.0405 12.6688 30.9243 11.5526C29.8081 10.4364 28.9383 9.09846 28.3713 7.62523C28.3184 7.4733 28.2788 7.32797 28.2325 7.16943C28.1885 7.00851 28.1532 6.84532 28.1268 6.68059C28.0717 6.41767 28.0429 6.1499 28.041 5.88127C28.0309 5.48118 28.1029 5.08326 28.2523 4.71202C28.3341 4.52314 28.4432 4.34731 28.576 4.19015C28.6099 4.14528 28.6475 4.1033 28.6883 4.06464C28.7481 4.00052 28.8146 3.94294 28.8865 3.89288C28.9454 3.84513 29.0072 3.80101 29.0715 3.76076C29.2631 3.6479 29.47 3.56335 29.6858 3.50974C29.9522 3.4474 30.2249 3.41636 30.4984 3.41726C30.7038 3.41772 30.909 3.43096 31.1127 3.45689C33.0702 3.84409 34.8592 4.82974 36.2323 6.27762C37.6838 7.6402 38.6763 9.41987 39.0729 11.3708C39.141 11.8426 39.114 12.3232 38.9936 12.7845Z" fill="url(#paint5_linear_385_1894)"/>
<defs>
<linearGradient id="paint0_linear_385_1894" x1="2.93828" y1="29.689" x2="22.6306" y2="29.689" gradientUnits="userSpaceOnUse">
<stop stop-color="#F08504"/>
<stop offset="1" stop-color="#E5322D"/>
</linearGradient>
<linearGradient id="paint1_linear_385_1894" x1="4.14136" y1="23.3205" x2="34.1653" y2="23.3205" gradientUnits="userSpaceOnUse">
<stop stop-color="#E53282"/>
<stop offset="1" stop-color="#851D7B"/>
</linearGradient>
<linearGradient id="paint2_linear_385_1894" x1="8.78535" y1="18.2537" x2="39.6747" y2="18.2537" gradientUnits="userSpaceOnUse">
<stop stop-color="#3AB4E6"/>
<stop offset="1" stop-color="#004996"/>
</linearGradient>
<linearGradient id="paint3_linear_385_1894" x1="15.2062" y1="14.8982" x2="39.9454" y2="14.8982" gradientUnits="userSpaceOnUse">
<stop stop-color="#97BE11"/>
<stop offset="1" stop-color="#258F2D"/>
</linearGradient>
<linearGradient id="paint4_linear_385_1894" x1="22.0897" y1="11.8596" x2="39.1528" y2="11.8596" gradientUnits="userSpaceOnUse">
<stop stop-color="#F08504"/>
<stop offset="1" stop-color="#E5322D"/>
</linearGradient>
<linearGradient id="paint5_linear_385_1894" x1="28.041" y1="8.91339" x2="39.0927" y2="8.91339" gradientUnits="userSpaceOnUse">
<stop stop-color="#E53282"/>
<stop offset="1" stop-color="#851D7B"/>
</linearGradient>
</defs>
</svg>
