<svg width="154" height="64" viewBox="0 0 154 64" fill="none" xmlns="http://www.w3.org/2000/svg">
<path d="M110.877 44.4455C108.961 44.4455 107.4 44.2517 106.194 43.8641C105.01 43.455 104.138 43.089 103.578 42.766L104.87 39.2457C105.473 39.5902 106.269 39.9132 107.26 40.2146C108.25 40.516 109.456 40.6668 110.877 40.6668C112.384 40.6668 113.439 40.4299 114.042 39.9562C114.645 39.461 114.946 38.8043 114.946 37.9862C114.946 37.3402 114.763 36.8127 114.397 36.4036C114.053 35.973 113.525 35.5854 112.815 35.2409C112.104 34.8965 111.211 34.5412 110.134 34.1752C109.101 33.7876 108.11 33.3462 107.163 32.851C106.237 32.3343 105.484 31.6668 104.902 30.8486C104.321 30.0304 104.03 28.9539 104.03 27.619C104.03 26.2625 104.353 25.0998 104.999 24.131C105.667 23.1621 106.592 22.4192 107.777 21.9025C108.982 21.3642 110.403 21.0951 112.04 21.0951C113.482 21.0951 114.742 21.2566 115.818 21.5795C116.917 21.9025 117.81 22.2578 118.499 22.6453L117.175 26.1333C116.551 25.7888 115.84 25.4982 115.043 25.2613C114.247 25.003 113.321 24.8738 112.266 24.8738C111.017 24.8738 110.08 25.0675 109.456 25.4551C108.853 25.8427 108.552 26.4563 108.552 27.296C108.552 27.8989 108.735 28.3941 109.101 28.7816C109.467 29.1692 109.962 29.5137 110.586 29.8151C111.211 30.095 111.911 30.3749 112.686 30.6548C114.171 31.1931 115.409 31.7529 116.4 32.3343C117.412 32.9156 118.176 33.6477 118.693 34.5304C119.231 35.3917 119.5 36.5436 119.5 37.9862C119.5 39.3426 119.177 40.5053 118.531 41.4742C117.885 42.4431 116.917 43.1859 115.625 43.7026C114.354 44.1978 112.772 44.4455 110.877 44.4455Z" fill="#FF5500"/>
<path d="M52.8472 43.9937C52.9333 42.1636 53.0302 40.2581 53.1378 38.2772C53.267 36.2964 53.3962 34.3155 53.5254 32.3347C53.6761 30.3538 53.8376 28.4483 54.0098 26.6182C54.1821 24.7881 54.3759 23.1194 54.5912 21.6123H58.7574C59.2096 22.4089 59.7048 23.367 60.2431 24.4866C60.7813 25.6063 61.3411 26.812 61.9225 28.1039C62.5254 29.3957 63.1175 30.6983 63.6988 32.0117C64.2801 33.3251 64.8076 34.5416 65.2813 35.6612C65.7765 34.5416 66.304 33.3251 66.8638 32.0117C67.4452 30.6983 68.0265 29.3957 68.6079 28.1039C69.2107 26.812 69.7813 25.6063 70.3196 24.4866C70.8794 23.367 71.3746 22.4089 71.8052 21.6123H75.7777C75.993 23.1194 76.1868 24.7881 76.359 26.6182C76.5313 28.4483 76.682 30.3538 76.8112 32.3347C76.9619 34.3155 77.0911 36.2964 77.1987 38.2772C77.3279 40.2581 77.4356 42.1636 77.5217 43.9937H73.2263C73.1617 42.3358 73.0863 40.6349 73.0002 38.8909C72.9356 37.1469 72.8495 35.3813 72.7418 33.5943C72.6557 31.7857 72.5373 30.0201 72.3866 28.2976C72.1067 28.9436 71.7729 29.6971 71.3854 30.5584C70.9978 31.4196 70.578 32.3455 70.1258 33.3359C69.6952 34.3048 69.2646 35.2737 68.8339 36.2426C68.4248 37.1899 68.0373 38.0835 67.6713 38.9232C67.3052 39.7629 67.0038 40.4734 66.767 41.0548H63.6019C63.3435 40.4734 63.0313 39.7629 62.6653 38.9232C62.3208 38.0835 61.9333 37.1899 61.5026 36.2426C61.072 35.2737 60.6414 34.3048 60.2108 33.3359C59.7802 32.3455 59.3711 31.4196 58.9835 30.5584C58.5959 29.6971 58.2622 28.9436 57.9823 28.2976C57.8316 30.0201 57.7024 31.7857 57.5948 33.5943C57.4871 35.3813 57.401 37.1469 57.3364 38.8909C57.2718 40.6349 57.2072 42.3358 57.1426 43.9937H52.8472Z" fill="#FF5500"/>
<path d="M34.5 43.9937V21.6123H38.9246V40.1827H48.9688V43.9937H34.5Z" fill="#FF5500"/>
<path d="M86.3182 43.7886L82.2471 20.8899H95.9001L90.7428 43.7886H86.3182Z" fill="#FF5500"/>
<g clip-path="url(#clip0_385_2317)">
<path d="M97.8073 11.1425C97.8071 11.0789 97.7935 11.0161 97.7674 10.9582C97.7413 10.9003 97.7033 10.8484 97.6559 10.8062C97.6082 10.7641 97.5522 10.7325 97.4915 10.7134C97.4308 10.6944 97.3668 10.6884 97.3037 10.6957L81.9926 12.4985C81.883 12.5114 81.7819 12.5642 81.7086 12.6467C81.6353 12.7292 81.5947 12.8357 81.5947 12.9461V17.0023C81.5947 18.7811 86.694 19.2558 89.7071 19.2558C92.7201 19.2558 97.8195 18.7811 97.8195 17.0023V17.0014L97.8073 11.1425Z" fill="#FF5500"/>
<path d="M97.8064 12.4953H89.6938V19.2556L89.7062 19.2557C92.6405 19.2557 97.5512 18.8049 97.8064 17.1387V12.4953Z" fill="#FF5500"/>
<path d="M103.139 8.65302L91.6059 4.69857C90.3805 4.27825 89.0311 4.27825 87.8057 4.69857L76.2726 8.65302C75.7177 8.84311 75.3584 9.34504 75.3584 9.93202C75.3584 10.5187 75.7176 11.0207 76.2726 11.2108L87.8058 15.1651C88.4175 15.3742 89.0595 15.4807 89.7059 15.4803C90.3523 15.4808 90.9943 15.3743 91.6059 15.1651L103.14 11.2108C103.695 11.0207 104.053 10.5188 104.053 9.93202C104.053 9.34504 103.694 8.84311 103.139 8.65302Z" fill="#FF5500"/>
<path d="M98.2566 19.7042C98.1974 19.7043 98.1388 19.6926 98.0841 19.67C98.0294 19.6473 97.9797 19.6141 97.9379 19.5723C97.896 19.5304 97.8629 19.4807 97.8402 19.426C97.8176 19.3714 97.8059 19.3127 97.806 19.2536V13.3646C97.806 13.2707 97.7766 13.1791 97.722 13.1026C97.6674 13.0262 97.5903 12.9686 97.5014 12.9381L89.5473 10.2111C89.4343 10.1723 89.3412 10.0903 89.2887 9.98291C89.2361 9.87557 89.2283 9.75175 89.2669 9.63864C89.3479 9.40319 89.6037 9.27718 89.8396 9.35858L97.7936 12.0857C98.0602 12.1771 98.2916 12.3495 98.4554 12.5788C98.6192 12.8081 98.7073 13.0829 98.7073 13.3647V19.2536C98.7073 19.3128 98.6957 19.3714 98.673 19.4261C98.6504 19.4808 98.6171 19.5305 98.5753 19.5723C98.5334 19.6142 98.4837 19.6474 98.429 19.67C98.3744 19.6926 98.3158 19.7043 98.2566 19.7042Z" fill="black"/>
<path d="M98.708 22.861H97.8066C97.7474 22.861 97.6888 22.8494 97.6341 22.8267C97.5795 22.8041 97.5298 22.7709 97.4879 22.729C97.4461 22.6871 97.4129 22.6374 97.3902 22.5827C97.3676 22.5281 97.3559 22.4694 97.356 22.4102V19.7061C97.356 19.2083 97.7594 18.8046 98.2572 18.8046C98.7552 18.8046 99.1586 19.2083 99.1586 19.7061V22.4102C99.1586 22.4694 99.147 22.528 99.1243 22.5827C99.1017 22.6374 99.0685 22.6871 99.0267 22.729C98.9848 22.7708 98.9352 22.804 98.8805 22.8267C98.8258 22.8493 98.7672 22.861 98.708 22.861Z" fill="#FF5500"/>
<path d="M97.8062 16.0047C97.8093 16.0027 97.8132 16.0009 97.8163 15.999L97.8137 14.7654C97.8132 14.7724 97.8073 14.7804 97.8062 14.7874V16.0047Z" fill="#6A5B54"/>
<path d="M89.7065 10.6915C90.7021 10.6915 91.5093 10.2879 91.5093 9.79011C91.5093 9.29231 90.7021 8.88875 89.7065 8.88875C88.7109 8.88875 87.9038 9.29231 87.9038 9.79011C87.9038 10.2879 88.7109 10.6915 89.7065 10.6915Z" fill="white"/>
</g>
<path d="M4.76367 60.6787V61.4453H1.20898V60.6787H4.76367ZM1.39453 54.336V61.4453H0.452148V54.336H1.39453ZM8.82129 60.542V57.8223C8.82129 57.6139 8.77897 57.4333 8.69434 57.2803C8.61296 57.124 8.48926 57.0036 8.32324 56.919C8.15723 56.8343 7.95215 56.792 7.70801 56.792C7.48014 56.792 7.27995 56.8311 7.10742 56.9092C6.93815 56.9873 6.80469 57.0899 6.70703 57.2168C6.61263 57.3438 6.56543 57.4805 6.56543 57.627H5.66211C5.66211 57.4382 5.71094 57.251 5.80859 57.0654C5.90625 56.8799 6.04622 56.7123 6.22852 56.5625C6.41406 56.4095 6.63542 56.2891 6.89258 56.2012C7.15299 56.11 7.44271 56.0645 7.76172 56.0645C8.14583 56.0645 8.48438 56.1296 8.77734 56.2598C9.07357 56.39 9.30469 56.5869 9.4707 56.8506C9.63997 57.111 9.72461 57.4382 9.72461 57.832V60.293C9.72461 60.4688 9.73926 60.6559 9.76855 60.8545C9.80111 61.0531 9.84831 61.224 9.91016 61.3672V61.4453H8.96777C8.9222 61.3412 8.88639 61.2028 8.86035 61.0303C8.83431 60.8545 8.82129 60.6917 8.82129 60.542ZM8.97754 58.2422L8.9873 58.877H8.07422C7.81706 58.877 7.58757 58.8981 7.38574 58.9404C7.18392 58.9795 7.01465 59.0397 6.87793 59.1211C6.74121 59.2025 6.63704 59.305 6.56543 59.4287C6.49382 59.5492 6.45801 59.6908 6.45801 59.8535C6.45801 60.0195 6.49544 60.1709 6.57031 60.3076C6.64518 60.4444 6.75749 60.5534 6.90723 60.6348C7.06022 60.7129 7.2474 60.752 7.46875 60.752C7.74544 60.752 7.98958 60.6934 8.20117 60.5762C8.41276 60.459 8.5804 60.3158 8.7041 60.1465C8.83105 59.9772 8.89941 59.8128 8.90918 59.6533L9.29492 60.0879C9.27214 60.2246 9.21029 60.376 9.10938 60.542C9.00846 60.708 8.87337 60.8675 8.7041 61.0205C8.53809 61.1703 8.33952 61.2956 8.1084 61.3965C7.88053 61.4942 7.62337 61.543 7.33691 61.543C6.97884 61.543 6.66471 61.473 6.39453 61.333C6.1276 61.193 5.91927 61.0059 5.76953 60.7715C5.62305 60.5339 5.5498 60.2686 5.5498 59.9756C5.5498 59.6924 5.60514 59.4434 5.71582 59.2285C5.8265 59.0104 5.986 58.8298 6.19434 58.6865C6.40267 58.5401 6.65332 58.4294 6.94629 58.3545C7.23926 58.2796 7.56641 58.2422 7.92773 58.2422H8.97754ZM11.1406 53.9453H12.0488V60.4199L11.9707 61.4453H11.1406V53.9453ZM15.6182 58.7598V58.8623C15.6182 59.2464 15.5726 59.6029 15.4814 59.9317C15.3903 60.2572 15.2568 60.5404 15.0811 60.7813C14.9053 61.0222 14.6904 61.2093 14.4365 61.3428C14.1826 61.4763 13.8913 61.543 13.5625 61.543C13.2272 61.543 12.9326 61.486 12.6787 61.3721C12.4281 61.2549 12.2165 61.0873 12.0439 60.8692C11.8714 60.6511 11.7331 60.3874 11.6289 60.0781C11.528 59.7689 11.458 59.4206 11.4189 59.0332V58.584C11.458 58.1934 11.528 57.8434 11.6289 57.5342C11.7331 57.225 11.8714 56.9613 12.0439 56.7432C12.2165 56.5218 12.4281 56.3542 12.6787 56.2402C12.9294 56.1231 13.2207 56.0645 13.5527 56.0645C13.8848 56.0645 14.1794 56.1296 14.4365 56.2598C14.6937 56.3867 14.9085 56.569 15.0811 56.8067C15.2568 57.0443 15.3903 57.3291 15.4814 57.6611C15.5726 57.9899 15.6182 58.3561 15.6182 58.7598ZM14.71 58.8623V58.7598C14.71 58.4961 14.6855 58.2487 14.6367 58.0176C14.5879 57.7832 14.5098 57.5781 14.4023 57.4024C14.2949 57.2233 14.1533 57.0833 13.9775 56.9824C13.8018 56.8783 13.5853 56.8262 13.3281 56.8262C13.1003 56.8262 12.9017 56.8652 12.7324 56.9434C12.5664 57.0215 12.4248 57.1273 12.3076 57.2608C12.1904 57.391 12.0944 57.5407 12.0195 57.71C11.9479 57.876 11.8942 58.0485 11.8584 58.2276V59.4043C11.9105 59.6322 11.9951 59.8519 12.1123 60.0635C12.2327 60.2718 12.3923 60.4427 12.5908 60.5762C12.7926 60.7097 13.0417 60.7764 13.3379 60.7764C13.582 60.7764 13.7904 60.7276 13.9629 60.6299C14.1387 60.529 14.2803 60.3906 14.3877 60.2149C14.4984 60.0391 14.5798 59.8356 14.6318 59.6045C14.6839 59.3734 14.71 59.126 14.71 58.8623ZM16.5215 58.8623V58.75C16.5215 58.3692 16.5768 58.016 16.6875 57.6904C16.7982 57.3617 16.9577 57.0768 17.166 56.836C17.3743 56.5918 17.6266 56.403 17.9229 56.2695C18.2191 56.1328 18.5511 56.0645 18.9189 56.0645C19.29 56.0645 19.6237 56.1328 19.9199 56.2695C20.2194 56.403 20.4733 56.5918 20.6816 56.836C20.8932 57.0768 21.0544 57.3617 21.165 57.6904C21.2757 58.016 21.3311 58.3692 21.3311 58.75V58.8623C21.3311 59.2432 21.2757 59.5964 21.165 59.9219C21.0544 60.2474 20.8932 60.5322 20.6816 60.7764C20.4733 61.0173 20.221 61.2061 19.9248 61.3428C19.6318 61.4763 19.2998 61.543 18.9287 61.543C18.5576 61.543 18.224 61.4763 17.9277 61.3428C17.6315 61.2061 17.3776 61.0173 17.166 60.7764C16.9577 60.5322 16.7982 60.2474 16.6875 59.9219C16.5768 59.5964 16.5215 59.2432 16.5215 58.8623ZM17.4248 58.75V58.8623C17.4248 59.126 17.4557 59.375 17.5176 59.6094C17.5794 59.8405 17.6722 60.0456 17.7959 60.2246C17.9229 60.4037 18.0807 60.5453 18.2695 60.6494C18.4583 60.7503 18.6781 60.8008 18.9287 60.8008C19.1761 60.8008 19.3926 60.7503 19.5781 60.6494C19.7669 60.5453 19.9232 60.4037 20.0469 60.2246C20.1706 60.0456 20.2633 59.8405 20.3252 59.6094C20.3903 59.375 20.4229 59.126 20.4229 58.8623V58.75C20.4229 58.4896 20.3903 58.2438 20.3252 58.0127C20.2633 57.7783 20.1689 57.5716 20.042 57.3926C19.9183 57.2103 19.762 57.0671 19.5732 56.9629C19.3877 56.8587 19.1696 56.8067 18.9189 56.8067C18.6715 56.8067 18.4535 56.8587 18.2646 56.9629C18.0791 57.0671 17.9229 57.2103 17.7959 57.3926C17.6722 57.5716 17.5794 57.7783 17.5176 58.0127C17.4557 58.2438 17.4248 58.4896 17.4248 58.75ZM25.6963 60.2246V56.1621H26.6045V61.4453H25.7402L25.6963 60.2246ZM25.8672 59.1113L26.2432 59.1016C26.2432 59.4531 26.2057 59.7787 26.1309 60.0781C26.0592 60.3744 25.9421 60.6315 25.7793 60.8496C25.6165 61.0677 25.4033 61.2386 25.1396 61.3623C24.876 61.4828 24.5553 61.543 24.1777 61.543C23.9206 61.543 23.6846 61.5055 23.4697 61.4307C23.2581 61.3558 23.0758 61.2402 22.9229 61.084C22.7699 60.9277 22.651 60.7243 22.5664 60.4736C22.485 60.223 22.4443 59.9219 22.4443 59.5703V56.1621H23.3477V59.5801C23.3477 59.8177 23.3737 60.0147 23.4258 60.1709C23.4811 60.3239 23.5544 60.446 23.6455 60.5371C23.7399 60.625 23.8441 60.6869 23.958 60.7227C24.0752 60.7585 24.1956 60.7764 24.3193 60.7764C24.7035 60.7764 25.0078 60.7031 25.2324 60.5567C25.457 60.4069 25.6182 60.2067 25.7158 59.9561C25.8167 59.7022 25.8672 59.4206 25.8672 59.1113ZM28.8848 56.9922V61.4453H27.9814V56.1621H28.8604L28.8848 56.9922ZM30.5352 56.1328L30.5303 56.9727C30.4554 56.9564 30.3838 56.9466 30.3154 56.9434C30.2503 56.9369 30.1755 56.9336 30.0908 56.9336C29.8825 56.9336 29.6986 56.9662 29.5391 57.0313C29.3796 57.0964 29.2445 57.1875 29.1338 57.3047C29.0231 57.4219 28.9352 57.5619 28.8701 57.7246C28.8083 57.8841 28.7676 58.0599 28.748 58.252L28.4941 58.3985C28.4941 58.0794 28.5251 57.78 28.5869 57.5C28.652 57.2201 28.7513 56.9727 28.8848 56.7578C29.0182 56.5397 29.1875 56.3705 29.3926 56.25C29.6009 56.1263 29.8483 56.0645 30.1348 56.0645C30.1999 56.0645 30.2747 56.0726 30.3594 56.0889C30.444 56.1019 30.5026 56.1166 30.5352 56.1328ZM34.2852 54.336H35.1982L37.5273 60.1319L39.8516 54.336H40.7695L37.8789 61.4453H37.166L34.2852 54.336ZM33.9873 54.336H34.793L34.9248 58.6719V61.4453H33.9873V54.336ZM40.2568 54.336H41.0625V61.4453H40.125V58.6719L40.2568 54.336ZM45.6963 60.542V57.8223C45.6963 57.6139 45.654 57.4333 45.5693 57.2803C45.488 57.124 45.3643 57.0036 45.1982 56.919C45.0322 56.8343 44.8271 56.792 44.583 56.792C44.3551 56.792 44.1549 56.8311 43.9824 56.9092C43.8132 56.9873 43.6797 57.0899 43.582 57.2168C43.4876 57.3438 43.4404 57.4805 43.4404 57.627H42.5371C42.5371 57.4382 42.5859 57.251 42.6836 57.0654C42.7812 56.8799 42.9212 56.7123 43.1035 56.5625C43.2891 56.4095 43.5104 56.2891 43.7676 56.2012C44.028 56.11 44.3177 56.0645 44.6367 56.0645C45.0208 56.0645 45.3594 56.1296 45.6523 56.2598C45.9486 56.39 46.1797 56.5869 46.3457 56.8506C46.515 57.111 46.5996 57.4382 46.5996 57.832V60.293C46.5996 60.4688 46.6143 60.6559 46.6436 60.8545C46.6761 61.0531 46.7233 61.224 46.7852 61.3672V61.4453H45.8428C45.7972 61.3412 45.7614 61.2028 45.7354 61.0303C45.7093 60.8545 45.6963 60.6917 45.6963 60.542ZM45.8525 58.2422L45.8623 58.877H44.9492C44.6921 58.877 44.4626 58.8981 44.2607 58.9404C44.0589 58.9795 43.8896 59.0397 43.7529 59.1211C43.6162 59.2025 43.512 59.305 43.4404 59.4287C43.3688 59.5492 43.333 59.6908 43.333 59.8535C43.333 60.0195 43.3704 60.1709 43.4453 60.3076C43.5202 60.4444 43.6325 60.5534 43.7822 60.6348C43.9352 60.7129 44.1224 60.752 44.3438 60.752C44.6204 60.752 44.8646 60.6934 45.0762 60.5762C45.2878 60.459 45.4554 60.3158 45.5791 60.1465C45.7061 59.9772 45.7744 59.8128 45.7842 59.6533L46.1699 60.0879C46.1471 60.2246 46.0853 60.376 45.9844 60.542C45.8835 60.708 45.7484 60.8675 45.5791 61.0205C45.4131 61.1703 45.2145 61.2956 44.9834 61.3965C44.7555 61.4942 44.4984 61.543 44.2119 61.543C43.8538 61.543 43.5397 61.473 43.2695 61.333C43.0026 61.193 42.7943 61.0059 42.6445 60.7715C42.498 60.5339 42.4248 60.2686 42.4248 59.9756C42.4248 59.6924 42.4801 59.4434 42.5908 59.2285C42.7015 59.0104 42.861 58.8298 43.0693 58.6865C43.2777 58.5401 43.5283 58.4294 43.8213 58.3545C44.1143 58.2796 44.4414 58.2422 44.8027 58.2422H45.8525ZM48.9238 56.9922V61.4453H48.0205V56.1621H48.8994L48.9238 56.9922ZM50.5742 56.1328L50.5693 56.9727C50.4945 56.9564 50.4229 56.9466 50.3545 56.9434C50.2894 56.9369 50.2145 56.9336 50.1299 56.9336C49.9215 56.9336 49.7376 56.9662 49.5781 57.0313C49.4186 57.0964 49.2835 57.1875 49.1729 57.3047C49.0622 57.4219 48.9743 57.5619 48.9092 57.7246C48.8473 57.8841 48.8066 58.0599 48.7871 58.252L48.5332 58.3985C48.5332 58.0794 48.5641 57.78 48.626 57.5C48.6911 57.2201 48.7904 56.9727 48.9238 56.7578C49.0573 56.5397 49.2266 56.3705 49.4316 56.25C49.64 56.1263 49.8874 56.0645 50.1738 56.0645C50.2389 56.0645 50.3138 56.0726 50.3984 56.0889C50.4831 56.1019 50.5417 56.1166 50.5742 56.1328ZM52.3174 53.9453V61.4453H51.4092V53.9453H52.3174ZM55.5449 56.1621L53.2402 58.6279L51.9512 59.9658L51.8779 59.0039L52.8008 57.9004L54.4414 56.1621H55.5449ZM54.7197 61.4453L52.835 58.9258L53.3037 58.1201L55.7842 61.4453H54.7197ZM58.5723 61.543C58.2044 61.543 57.8708 61.4811 57.5713 61.3574C57.2751 61.2305 57.0195 61.0531 56.8047 60.8252C56.5931 60.5973 56.4303 60.3272 56.3164 60.0147C56.2025 59.7022 56.1455 59.3604 56.1455 58.9893V58.7842C56.1455 58.3545 56.209 57.972 56.3359 57.6367C56.4629 57.2982 56.6354 57.0117 56.8535 56.7774C57.0716 56.543 57.319 56.3656 57.5957 56.2451C57.8724 56.1247 58.1589 56.0645 58.4551 56.0645C58.8327 56.0645 59.1582 56.1296 59.4316 56.2598C59.7083 56.39 59.9346 56.5723 60.1104 56.8067C60.2861 57.0378 60.4163 57.3112 60.501 57.627C60.5856 57.9395 60.6279 58.2813 60.6279 58.6524V59.0576H56.6826V58.3203H59.7246V58.252C59.7116 58.0176 59.6628 57.7897 59.5781 57.5684C59.4967 57.347 59.3665 57.1647 59.1875 57.0215C59.0085 56.8783 58.7643 56.8067 58.4551 56.8067C58.25 56.8067 58.0612 56.8506 57.8887 56.9385C57.7161 57.0231 57.568 57.1501 57.4443 57.3194C57.3206 57.4886 57.2246 57.6953 57.1562 57.9395C57.0879 58.1836 57.0537 58.4652 57.0537 58.7842V58.9893C57.0537 59.2399 57.0879 59.4759 57.1562 59.6973C57.2279 59.9154 57.3304 60.1074 57.4639 60.2735C57.6006 60.4395 57.765 60.5697 57.957 60.6641C58.1523 60.7585 58.3737 60.8057 58.6211 60.8057C58.9401 60.8057 59.2103 60.7406 59.4316 60.6104C59.653 60.4802 59.8467 60.306 60.0127 60.0879L60.5596 60.5225C60.4456 60.695 60.3008 60.8594 60.125 61.0156C59.9492 61.1719 59.7327 61.2988 59.4756 61.3965C59.2217 61.4942 58.9206 61.543 58.5723 61.543ZM63.8945 56.1621V56.8555H61.0381V56.1621H63.8945ZM62.0049 54.8779H62.9082V60.1367C62.9082 60.3158 62.9359 60.4509 62.9912 60.542C63.0465 60.6332 63.1182 60.6934 63.2061 60.7227C63.2939 60.752 63.3883 60.7666 63.4893 60.7666C63.5641 60.7666 63.6423 60.7601 63.7236 60.7471C63.8083 60.7308 63.8717 60.7178 63.9141 60.708L63.9189 61.4453C63.8473 61.4681 63.7529 61.4893 63.6357 61.5088C63.5218 61.5316 63.3835 61.543 63.2207 61.543C62.9993 61.543 62.7959 61.499 62.6104 61.4111C62.4248 61.3233 62.2767 61.1768 62.166 60.9717C62.0586 60.7634 62.0049 60.4834 62.0049 60.1319V54.8779ZM68.582 54.336V61.4453H67.6396V54.336H68.582ZM71.0625 57.2901V61.4453H70.1592V56.1621H71.0137L71.0625 57.2901ZM70.8477 58.6035L70.4717 58.5889C70.4749 58.2276 70.5286 57.8939 70.6328 57.5879C70.737 57.2787 70.8835 57.0101 71.0723 56.7822C71.2611 56.5544 71.4857 56.3786 71.7461 56.2549C72.0098 56.1279 72.3011 56.0645 72.6201 56.0645C72.8805 56.0645 73.1149 56.1003 73.3232 56.1719C73.5316 56.2402 73.709 56.3509 73.8555 56.5039C74.0052 56.6569 74.1191 56.8555 74.1973 57.0996C74.2754 57.3405 74.3145 57.6351 74.3145 57.9834V61.4453H73.4062V57.9736C73.4062 57.697 73.3656 57.4756 73.2842 57.3096C73.2028 57.1403 73.084 57.0182 72.9277 56.9434C72.7715 56.8652 72.5794 56.8262 72.3516 56.8262C72.127 56.8262 71.9219 56.8734 71.7363 56.9678C71.554 57.0622 71.3962 57.1924 71.2627 57.3584C71.1325 57.5244 71.0299 57.7149 70.9551 57.9297C70.8835 58.1413 70.8477 58.3659 70.8477 58.6035ZM77.0342 61.4453H76.1309V55.6055C76.1309 55.2246 76.1992 54.904 76.3359 54.6436C76.4759 54.3799 76.6761 54.1813 76.9365 54.0479C77.1969 53.9111 77.5062 53.8428 77.8643 53.8428C77.9684 53.8428 78.0726 53.8493 78.1768 53.8623C78.2842 53.8753 78.3883 53.8949 78.4893 53.9209L78.4404 54.6582C78.3721 54.6419 78.2939 54.6305 78.2061 54.624C78.1214 54.6175 78.0368 54.6143 77.9521 54.6143C77.7601 54.6143 77.5941 54.6533 77.4541 54.7315C77.3174 54.8063 77.2132 54.917 77.1416 55.0635C77.07 55.21 77.0342 55.3906 77.0342 55.6055V61.4453ZM78.1572 56.1621V56.8555H75.2959V56.1621H78.1572ZM78.9238 58.8623V58.75C78.9238 58.3692 78.9792 58.016 79.0898 57.6904C79.2005 57.3617 79.36 57.0768 79.5684 56.836C79.7767 56.5918 80.029 56.403 80.3252 56.2695C80.6214 56.1328 80.9535 56.0645 81.3213 56.0645C81.6924 56.0645 82.026 56.1328 82.3223 56.2695C82.6217 56.403 82.8757 56.5918 83.084 56.836C83.2956 57.0768 83.4567 57.3617 83.5674 57.6904C83.6781 58.016 83.7334 58.3692 83.7334 58.75V58.8623C83.7334 59.2432 83.6781 59.5964 83.5674 59.9219C83.4567 60.2474 83.2956 60.5322 83.084 60.7764C82.8757 61.0173 82.6234 61.2061 82.3271 61.3428C82.0342 61.4763 81.7021 61.543 81.3311 61.543C80.96 61.543 80.6263 61.4763 80.3301 61.3428C80.0339 61.2061 79.7799 61.0173 79.5684 60.7764C79.36 60.5322 79.2005 60.2474 79.0898 59.9219C78.9792 59.5964 78.9238 59.2432 78.9238 58.8623ZM79.8271 58.75V58.8623C79.8271 59.126 79.8581 59.375 79.9199 59.6094C79.9818 59.8405 80.0745 60.0456 80.1982 60.2246C80.3252 60.4037 80.4831 60.5453 80.6719 60.6494C80.8607 60.7503 81.0804 60.8008 81.3311 60.8008C81.5785 60.8008 81.7949 60.7503 81.9805 60.6494C82.1693 60.5453 82.3255 60.4037 82.4492 60.2246C82.5729 60.0456 82.6657 59.8405 82.7275 59.6094C82.7926 59.375 82.8252 59.126 82.8252 58.8623V58.75C82.8252 58.4896 82.7926 58.2438 82.7275 58.0127C82.6657 57.7783 82.5713 57.5716 82.4443 57.3926C82.3206 57.2103 82.1644 57.0671 81.9756 56.9629C81.79 56.8587 81.5719 56.8067 81.3213 56.8067C81.0739 56.8067 80.8558 56.8587 80.667 56.9629C80.4814 57.0671 80.3252 57.2103 80.1982 57.3926C80.0745 57.5716 79.9818 57.7783 79.9199 58.0127C79.8581 58.2438 79.8271 58.4896 79.8271 58.75ZM85.7695 56.9922V61.4453H84.8662V56.1621H85.7451L85.7695 56.9922ZM87.4199 56.1328L87.415 56.9727C87.3402 56.9564 87.2686 56.9466 87.2002 56.9434C87.1351 56.9369 87.0602 56.9336 86.9756 56.9336C86.7673 56.9336 86.5833 56.9662 86.4238 57.0313C86.2643 57.0964 86.1292 57.1875 86.0186 57.3047C85.9079 57.4219 85.82 57.5619 85.7549 57.7246C85.693 57.8841 85.6523 58.0599 85.6328 58.252L85.3789 58.3985C85.3789 58.0794 85.4098 57.78 85.4717 57.5C85.5368 57.2201 85.6361 56.9727 85.7695 56.7578C85.903 56.5397 86.0723 56.3705 86.2773 56.25C86.4857 56.1263 86.7331 56.0645 87.0195 56.0645C87.0846 56.0645 87.1595 56.0726 87.2441 56.0889C87.3288 56.1019 87.3874 56.1166 87.4199 56.1328ZM89.1533 57.2119V61.4453H88.2451V56.1621H89.1045L89.1533 57.2119ZM88.9678 58.6035L88.5479 58.5889C88.5511 58.2276 88.5983 57.8939 88.6895 57.5879C88.7806 57.2787 88.9157 57.0101 89.0947 56.7822C89.2738 56.5544 89.4967 56.3786 89.7637 56.2549C90.0306 56.1279 90.3398 56.0645 90.6914 56.0645C90.9388 56.0645 91.1667 56.1003 91.375 56.1719C91.5833 56.2402 91.764 56.3493 91.917 56.499C92.07 56.6488 92.1888 56.8408 92.2734 57.0752C92.3581 57.3096 92.4004 57.5928 92.4004 57.9248V61.4453H91.4971V57.9688C91.4971 57.6921 91.4499 57.4707 91.3555 57.3047C91.2643 57.1387 91.1341 57.0182 90.9648 56.9434C90.7956 56.8652 90.597 56.8262 90.3691 56.8262C90.1022 56.8262 89.8792 56.8734 89.7002 56.9678C89.5212 57.0622 89.3779 57.1924 89.2705 57.3584C89.1631 57.5244 89.085 57.7149 89.0361 57.9297C88.9906 58.1413 88.9678 58.3659 88.9678 58.6035ZM92.3906 58.1055L91.7852 58.291C91.7884 58.0013 91.8356 57.723 91.9268 57.4561C92.0212 57.1891 92.1562 56.9515 92.332 56.7432C92.5111 56.5348 92.7308 56.3705 92.9912 56.25C93.2516 56.1263 93.5495 56.0645 93.8848 56.0645C94.168 56.0645 94.4186 56.1019 94.6367 56.1768C94.8581 56.2516 95.0436 56.3672 95.1934 56.5235C95.3464 56.6764 95.4619 56.8734 95.54 57.1143C95.6182 57.3552 95.6572 57.6416 95.6572 57.9736V61.4453H94.749V57.9639C94.749 57.6677 94.7018 57.4382 94.6074 57.2754C94.5163 57.1094 94.3861 56.9938 94.2168 56.9287C94.0508 56.8604 93.8522 56.8262 93.6211 56.8262C93.4225 56.8262 93.2467 56.8604 93.0938 56.9287C92.9408 56.9971 92.8122 57.0915 92.708 57.2119C92.6038 57.3291 92.5241 57.4642 92.4688 57.6172C92.4167 57.7702 92.3906 57.933 92.3906 58.1055ZM100.14 60.542V57.8223C100.14 57.6139 100.097 57.4333 100.013 57.2803C99.9313 57.124 99.8076 57.0036 99.6416 56.919C99.4756 56.8343 99.2705 56.792 99.0264 56.792C98.7985 56.792 98.5983 56.8311 98.4258 56.9092C98.2565 56.9873 98.123 57.0899 98.0254 57.2168C97.931 57.3438 97.8838 57.4805 97.8838 57.627H96.9805C96.9805 57.4382 97.0293 57.251 97.127 57.0654C97.2246 56.8799 97.3646 56.7123 97.5469 56.5625C97.7324 56.4095 97.9538 56.2891 98.2109 56.2012C98.4714 56.11 98.7611 56.0645 99.0801 56.0645C99.4642 56.0645 99.8027 56.1296 100.096 56.2598C100.392 56.39 100.623 56.5869 100.789 56.8506C100.958 57.111 101.043 57.4382 101.043 57.832V60.293C101.043 60.4688 101.058 60.6559 101.087 60.8545C101.119 61.0531 101.167 61.224 101.229 61.3672V61.4453H100.286C100.241 61.3412 100.205 61.2028 100.179 61.0303C100.153 60.8545 100.14 60.6917 100.14 60.542ZM100.296 58.2422L100.306 58.877H99.3926C99.1354 58.877 98.9059 58.8981 98.7041 58.9404C98.5023 58.9795 98.333 59.0397 98.1963 59.1211C98.0596 59.2025 97.9554 59.305 97.8838 59.4287C97.8122 59.5492 97.7764 59.6908 97.7764 59.8535C97.7764 60.0195 97.8138 60.1709 97.8887 60.3076C97.9635 60.4444 98.0758 60.5534 98.2256 60.6348C98.3786 60.7129 98.5658 60.752 98.7871 60.752C99.0638 60.752 99.3079 60.6934 99.5195 60.5762C99.7311 60.459 99.8988 60.3158 100.022 60.1465C100.149 59.9772 100.218 59.8128 100.228 59.6533L100.613 60.0879C100.59 60.2246 100.529 60.376 100.428 60.542C100.327 60.708 100.192 60.8675 100.022 61.0205C99.8564 61.1703 99.6579 61.2956 99.4268 61.3965C99.1989 61.4942 98.9417 61.543 98.6553 61.543C98.2972 61.543 97.9831 61.473 97.7129 61.333C97.446 61.193 97.2376 61.0059 97.0879 60.7715C96.9414 60.5339 96.8682 60.2686 96.8682 59.9756C96.8682 59.6924 96.9235 59.4434 97.0342 59.2285C97.1449 59.0104 97.3044 58.8298 97.5127 58.6865C97.721 58.5401 97.9717 58.4294 98.2646 58.3545C98.5576 58.2796 98.8848 58.2422 99.2461 58.2422H100.296ZM104.676 56.1621V56.8555H101.819V56.1621H104.676ZM102.786 54.8779H103.689V60.1367C103.689 60.3158 103.717 60.4509 103.772 60.542C103.828 60.6332 103.899 60.6934 103.987 60.7227C104.075 60.752 104.17 60.7666 104.271 60.7666C104.345 60.7666 104.424 60.7601 104.505 60.7471C104.59 60.7308 104.653 60.7178 104.695 60.708L104.7 61.4453C104.629 61.4681 104.534 61.4893 104.417 61.5088C104.303 61.5316 104.165 61.543 104.002 61.543C103.781 61.543 103.577 61.499 103.392 61.4111C103.206 61.3233 103.058 61.1768 102.947 60.9717C102.84 60.7634 102.786 60.4834 102.786 60.1319V54.8779ZM106.717 56.1621V61.4453H105.809V56.1621H106.717ZM105.74 54.7608C105.74 54.6143 105.784 54.4906 105.872 54.3897C105.963 54.2888 106.097 54.2383 106.272 54.2383C106.445 54.2383 106.577 54.2888 106.668 54.3897C106.762 54.4906 106.81 54.6143 106.81 54.7608C106.81 54.9007 106.762 55.0212 106.668 55.1221C106.577 55.2197 106.445 55.2686 106.272 55.2686C106.097 55.2686 105.963 55.2197 105.872 55.1221C105.784 55.0212 105.74 54.9007 105.74 54.7608ZM107.928 58.8623V58.75C107.928 58.3692 107.983 58.016 108.094 57.6904C108.204 57.3617 108.364 57.0768 108.572 56.836C108.781 56.5918 109.033 56.403 109.329 56.2695C109.625 56.1328 109.957 56.0645 110.325 56.0645C110.696 56.0645 111.03 56.1328 111.326 56.2695C111.626 56.403 111.88 56.5918 112.088 56.836C112.299 57.0768 112.461 57.3617 112.571 57.6904C112.682 58.016 112.737 58.3692 112.737 58.75V58.8623C112.737 59.2432 112.682 59.5964 112.571 59.9219C112.461 60.2474 112.299 60.5322 112.088 60.7764C111.88 61.0173 111.627 61.2061 111.331 61.3428C111.038 61.4763 110.706 61.543 110.335 61.543C109.964 61.543 109.63 61.4763 109.334 61.3428C109.038 61.2061 108.784 61.0173 108.572 60.7764C108.364 60.5322 108.204 60.2474 108.094 59.9219C107.983 59.5964 107.928 59.2432 107.928 58.8623ZM108.831 58.75V58.8623C108.831 59.126 108.862 59.375 108.924 59.6094C108.986 59.8405 109.078 60.0456 109.202 60.2246C109.329 60.4037 109.487 60.5453 109.676 60.6494C109.865 60.7503 110.084 60.8008 110.335 60.8008C110.582 60.8008 110.799 60.7503 110.984 60.6494C111.173 60.5453 111.329 60.4037 111.453 60.2246C111.577 60.0456 111.67 59.8405 111.731 59.6094C111.797 59.375 111.829 59.126 111.829 58.8623V58.75C111.829 58.4896 111.797 58.2438 111.731 58.0127C111.67 57.7783 111.575 57.5716 111.448 57.3926C111.325 57.2103 111.168 57.0671 110.979 56.9629C110.794 56.8587 110.576 56.8067 110.325 56.8067C110.078 56.8067 109.86 56.8587 109.671 56.9629C109.485 57.0671 109.329 57.2103 109.202 57.3926C109.078 57.5716 108.986 57.7783 108.924 58.0127C108.862 58.2438 108.831 58.4896 108.831 58.75ZM114.773 57.2901V61.4453H113.87V56.1621H114.725L114.773 57.2901ZM114.559 58.6035L114.183 58.5889C114.186 58.2276 114.24 57.8939 114.344 57.5879C114.448 57.2787 114.594 57.0101 114.783 56.7822C114.972 56.5544 115.197 56.3786 115.457 56.2549C115.721 56.1279 116.012 56.0645 116.331 56.0645C116.591 56.0645 116.826 56.1003 117.034 56.1719C117.243 56.2402 117.42 56.3509 117.566 56.5039C117.716 56.6569 117.83 56.8555 117.908 57.0996C117.986 57.3405 118.025 57.6351 118.025 57.9834V61.4453H117.117V57.9736C117.117 57.697 117.076 57.4756 116.995 57.3096C116.914 57.1403 116.795 57.0182 116.639 56.9434C116.482 56.8652 116.29 56.8262 116.062 56.8262C115.838 56.8262 115.633 56.8734 115.447 56.9678C115.265 57.0622 115.107 57.1924 114.974 57.3584C114.843 57.5244 114.741 57.7149 114.666 57.9297C114.594 58.1413 114.559 58.3659 114.559 58.6035ZM125.804 59.6485C125.804 59.4824 125.778 59.336 125.726 59.209C125.677 59.0788 125.589 58.9616 125.462 58.8574C125.338 58.7533 125.166 58.654 124.944 58.5596C124.726 58.4652 124.45 58.3692 124.114 58.2715C123.763 58.1673 123.445 58.0518 123.162 57.9248C122.879 57.7946 122.636 57.6465 122.435 57.4805C122.233 57.3145 122.078 57.124 121.971 56.9092C121.863 56.6944 121.81 56.4486 121.81 56.1719C121.81 55.8952 121.867 55.6397 121.98 55.4053C122.094 55.1709 122.257 54.9675 122.469 54.7949C122.684 54.6192 122.939 54.4824 123.235 54.3848C123.532 54.2871 123.862 54.2383 124.227 54.2383C124.76 54.2383 125.213 54.3408 125.584 54.5459C125.958 54.7477 126.243 55.013 126.438 55.3418C126.634 55.6673 126.731 56.0156 126.731 56.3867H125.794C125.794 56.1198 125.737 55.8838 125.623 55.6787C125.509 55.4704 125.337 55.3076 125.105 55.1904C124.874 55.07 124.581 55.0098 124.227 55.0098C123.891 55.0098 123.615 55.0602 123.396 55.1611C123.178 55.2621 123.016 55.3988 122.908 55.5713C122.804 55.7438 122.752 55.9408 122.752 56.1621C122.752 56.3119 122.783 56.4486 122.845 56.5723C122.91 56.6927 123.009 56.805 123.143 56.9092C123.279 57.0134 123.452 57.1094 123.66 57.1973C123.872 57.2852 124.124 57.3698 124.417 57.4512C124.821 57.5651 125.169 57.6921 125.462 57.832C125.755 57.972 125.996 58.1299 126.185 58.3057C126.377 58.4782 126.518 58.6751 126.609 58.8965C126.704 59.1146 126.751 59.362 126.751 59.6387C126.751 59.9284 126.692 60.1904 126.575 60.4248C126.458 60.6592 126.29 60.8594 126.072 61.0254C125.854 61.1914 125.592 61.32 125.286 61.4111C124.983 61.499 124.645 61.543 124.271 61.543C123.942 61.543 123.618 61.4974 123.299 61.4063C122.983 61.3151 122.695 61.1784 122.435 60.9961C122.177 60.8138 121.971 60.5892 121.814 60.3223C121.661 60.0521 121.585 59.7396 121.585 59.3848H122.522C122.522 59.6289 122.57 59.8389 122.664 60.0147C122.758 60.1872 122.887 60.3304 123.05 60.4444C123.216 60.5583 123.403 60.6429 123.611 60.6983C123.823 60.7503 124.043 60.7764 124.271 60.7764C124.599 60.7764 124.878 60.7308 125.105 60.6397C125.333 60.5485 125.506 60.4183 125.623 60.249C125.743 60.0798 125.804 59.8796 125.804 59.6485ZM129.3 60.8985L130.77 56.1621H131.736L129.617 62.2608C129.568 62.391 129.503 62.5309 129.422 62.6807C129.344 62.8337 129.243 62.9785 129.119 63.1152C128.995 63.252 128.846 63.3626 128.67 63.4473C128.497 63.5352 128.291 63.5791 128.05 63.5791C127.978 63.5791 127.887 63.5694 127.776 63.5498C127.666 63.5303 127.588 63.514 127.542 63.501L127.537 62.7686C127.563 62.7718 127.604 62.7751 127.659 62.7783C127.718 62.7848 127.758 62.7881 127.781 62.7881C127.986 62.7881 128.16 62.7604 128.304 62.7051C128.447 62.653 128.567 62.5635 128.665 62.4365C128.766 62.3128 128.852 62.1419 128.924 61.9238L129.3 60.8985ZM128.221 56.1621L129.593 60.2637L129.827 61.2158L129.178 61.5479L127.234 56.1621H128.221ZM135.628 60.044C135.628 59.9138 135.599 59.7933 135.54 59.6826C135.485 59.5687 135.369 59.4662 135.193 59.375C135.021 59.2806 134.76 59.1992 134.412 59.1309C134.119 59.069 133.854 58.9958 133.616 58.9111C133.382 58.8265 133.182 58.724 133.016 58.6035C132.853 58.4831 132.728 58.3415 132.64 58.1787C132.552 58.016 132.508 57.8255 132.508 57.6074C132.508 57.3991 132.553 57.2022 132.645 57.0166C132.739 56.8311 132.871 56.6667 133.04 56.5235C133.213 56.3802 133.419 56.2679 133.66 56.1865C133.901 56.1052 134.17 56.0645 134.466 56.0645C134.889 56.0645 135.25 56.1393 135.55 56.2891C135.849 56.4388 136.079 56.639 136.238 56.8897C136.398 57.1371 136.478 57.4121 136.478 57.7149H135.574C135.574 57.5684 135.53 57.4268 135.442 57.2901C135.358 57.1501 135.232 57.0345 135.066 56.9434C134.904 56.8522 134.703 56.8067 134.466 56.8067C134.215 56.8067 134.012 56.8457 133.855 56.9238C133.702 56.9987 133.59 57.0947 133.519 57.2119C133.45 57.3291 133.416 57.4528 133.416 57.583C133.416 57.6807 133.432 57.7686 133.465 57.8467C133.501 57.9216 133.562 57.9916 133.65 58.0567C133.738 58.1185 133.862 58.1771 134.021 58.2324C134.181 58.2878 134.384 58.3431 134.632 58.3985C135.065 58.4961 135.421 58.6133 135.701 58.75C135.981 58.8867 136.189 59.0544 136.326 59.2529C136.463 59.4515 136.531 59.6924 136.531 59.9756C136.531 60.2067 136.482 60.4183 136.385 60.6104C136.29 60.8024 136.152 60.9684 135.97 61.1084C135.791 61.2451 135.576 61.3526 135.325 61.4307C135.078 61.5055 134.799 61.543 134.49 61.543C134.025 61.543 133.631 61.46 133.309 61.294C132.986 61.1279 132.742 60.9131 132.576 60.6494C132.41 60.3858 132.327 60.1074 132.327 59.8145H133.235C133.248 60.0619 133.32 60.2588 133.45 60.4053C133.58 60.5485 133.74 60.6511 133.929 60.7129C134.118 60.7715 134.305 60.8008 134.49 60.8008C134.738 60.8008 134.944 60.7682 135.11 60.7031C135.28 60.638 135.408 60.5485 135.496 60.4346C135.584 60.3207 135.628 60.1904 135.628 60.044ZM139.93 56.1621V56.8555H137.073V56.1621H139.93ZM138.04 54.8779H138.943V60.1367C138.943 60.3158 138.971 60.4509 139.026 60.542C139.082 60.6332 139.153 60.6934 139.241 60.7227C139.329 60.752 139.424 60.7666 139.524 60.7666C139.599 60.7666 139.677 60.7601 139.759 60.7471C139.843 60.7308 139.907 60.7178 139.949 60.708L139.954 61.4453C139.882 61.4681 139.788 61.4893 139.671 61.5088C139.557 61.5316 139.419 61.543 139.256 61.543C139.035 61.543 138.831 61.499 138.646 61.4111C138.46 61.3233 138.312 61.1768 138.201 60.9717C138.094 60.7634 138.04 60.4834 138.04 60.1319V54.8779ZM143.182 61.543C142.814 61.543 142.48 61.4811 142.181 61.3574C141.884 61.2305 141.629 61.0531 141.414 60.8252C141.202 60.5973 141.04 60.3272 140.926 60.0147C140.812 59.7022 140.755 59.3604 140.755 58.9893V58.7842C140.755 58.3545 140.818 57.972 140.945 57.6367C141.072 57.2982 141.245 57.0117 141.463 56.7774C141.681 56.543 141.928 56.3656 142.205 56.2451C142.482 56.1247 142.768 56.0645 143.064 56.0645C143.442 56.0645 143.768 56.1296 144.041 56.2598C144.318 56.39 144.544 56.5723 144.72 56.8067C144.896 57.0378 145.026 57.3112 145.11 57.627C145.195 57.9395 145.237 58.2813 145.237 58.6524V59.0576H141.292V58.3203H144.334V58.252C144.321 58.0176 144.272 57.7897 144.188 57.5684C144.106 57.347 143.976 57.1647 143.797 57.0215C143.618 56.8783 143.374 56.8067 143.064 56.8067C142.859 56.8067 142.671 56.8506 142.498 56.9385C142.326 57.0231 142.177 57.1501 142.054 57.3194C141.93 57.4886 141.834 57.6953 141.766 57.9395C141.697 58.1836 141.663 58.4652 141.663 58.7842V58.9893C141.663 59.2399 141.697 59.4759 141.766 59.6973C141.837 59.9154 141.94 60.1074 142.073 60.2735C142.21 60.4395 142.374 60.5697 142.566 60.6641C142.762 60.7585 142.983 60.8057 143.23 60.8057C143.549 60.8057 143.82 60.7406 144.041 60.6104C144.262 60.4802 144.456 60.306 144.622 60.0879L145.169 60.5225C145.055 60.695 144.91 60.8594 144.734 61.0156C144.559 61.1719 144.342 61.2988 144.085 61.3965C143.831 61.4942 143.53 61.543 143.182 61.543ZM147.19 57.2119V61.4453H146.282V56.1621H147.142L147.19 57.2119ZM147.005 58.6035L146.585 58.5889C146.588 58.2276 146.635 57.8939 146.727 57.5879C146.818 57.2787 146.953 57.0101 147.132 56.7822C147.311 56.5544 147.534 56.3786 147.801 56.2549C148.068 56.1279 148.377 56.0645 148.729 56.0645C148.976 56.0645 149.204 56.1003 149.412 56.1719C149.62 56.2402 149.801 56.3493 149.954 56.499C150.107 56.6488 150.226 56.8408 150.311 57.0752C150.395 57.3096 150.438 57.5928 150.438 57.9248V61.4453H149.534V57.9688C149.534 57.6921 149.487 57.4707 149.393 57.3047C149.301 57.1387 149.171 57.0182 149.002 56.9434C148.833 56.8652 148.634 56.8262 148.406 56.8262C148.139 56.8262 147.916 56.8734 147.737 56.9678C147.558 57.0622 147.415 57.1924 147.308 57.3584C147.2 57.5244 147.122 57.7149 147.073 57.9297C147.028 58.1413 147.005 58.3659 147.005 58.6035ZM150.428 58.1055L149.822 58.291C149.826 58.0013 149.873 57.723 149.964 57.4561C150.058 57.1891 150.193 56.9515 150.369 56.7432C150.548 56.5348 150.768 56.3705 151.028 56.25C151.289 56.1263 151.587 56.0645 151.922 56.0645C152.205 56.0645 152.456 56.1019 152.674 56.1768C152.895 56.2516 153.081 56.3672 153.23 56.5235C153.383 56.6764 153.499 56.8734 153.577 57.1143C153.655 57.3552 153.694 57.6416 153.694 57.9736V61.4453H152.786V57.9639C152.786 57.6677 152.739 57.4382 152.645 57.2754C152.553 57.1094 152.423 56.9938 152.254 56.9287C152.088 56.8604 151.889 56.8262 151.658 56.8262C151.46 56.8262 151.284 56.8604 151.131 56.9287C150.978 56.9971 150.849 57.0915 150.745 57.2119C150.641 57.3291 150.561 57.4642 150.506 57.6172C150.454 57.7702 150.428 57.933 150.428 58.1055Z" fill="#353534"/>
<defs>
<clipPath id="clip0_385_2317">
<rect width="29.8415" height="29.8415" fill="white" transform="translate(74.7856 -0.000375748)"/>
</clipPath>
</defs>
</svg>
