<svg width="45" height="34" viewBox="0 0 45 34" fill="none" xmlns="http://www.w3.org/2000/svg">
<path d="M40.8025 0.298828L44.3996 3.35939C42.0956 5.30908 40.2147 7.19075 38.7571 9.00442C37.3465 10.7727 36.4531 12.1103 36.0769 13.0171C35.7007 13.924 35.3481 15.0122 35.0189 16.2817L35.3011 16.6898C38.4515 16.6898 40.7555 17.3473 42.2131 18.6622C43.6708 19.9771 44.3996 22.0175 44.3996 24.7833C44.3996 26.9144 43.6003 28.8414 42.0015 30.5644C40.4498 32.2873 38.4985 33.1488 36.1474 33.1488C33.4672 33.1488 31.2337 32.4234 29.447 30.9724C27.6602 29.5215 26.7668 27.1864 26.7668 23.9671C26.7668 19.705 28.1304 15.3069 30.8576 10.7727C33.6318 6.19324 36.9468 2.70193 40.8025 0.298828ZM14.6354 0.298828L18.2325 3.35939C15.9284 5.30908 14.0711 7.16808 12.6605 8.93641C11.2499 10.7047 10.3329 12.065 9.90975 13.0171C9.53359 13.9693 9.18093 15.0575 8.85178 16.2817L9.13391 16.6898C12.2843 16.6898 14.5883 17.3473 16.046 18.6622C17.5036 19.9771 18.2325 22.0175 18.2325 24.7833C18.2325 26.9144 17.4331 28.8414 15.8344 30.5644C14.2827 32.2873 12.3313 33.1488 9.98029 33.1488C7.30009 33.1488 5.0666 32.4234 3.2798 30.9724C1.49301 29.5215 0.599609 27.1864 0.599609 23.9671C0.599609 19.705 1.96322 15.3069 4.69043 10.7727C7.46467 6.19324 10.7796 2.70193 14.6354 0.298828Z" fill="#FF5500"/>
</svg>
